<svg width="20" height="20" viewBox="0 0 20 20" fill="none" xmlns="http://www.w3.org/2000/svg">
<path d="M2.5 10.9375C2.5 10.42 2.92 10 3.4375 10H5.3125C5.83 10 6.25 10.42 6.25 10.9375V16.5625C6.25 17.08 5.83 17.5 5.3125 17.5H3.4375C3.18886 17.5 2.9504 17.4012 2.77459 17.2254C2.59877 17.0496 2.5 16.8111 2.5 16.5625V10.9375ZM8.125 7.1875C8.125 6.67 8.545 6.25 9.0625 6.25H10.9375C11.455 6.25 11.875 6.67 11.875 7.1875V16.5625C11.875 17.08 11.455 17.5 10.9375 17.5H9.0625C8.81386 17.5 8.5754 17.4012 8.39959 17.2254C8.22377 17.0496 8.125 16.8111 8.125 16.5625V7.1875ZM13.75 3.4375C13.75 2.92 14.17 2.5 14.6875 2.5H16.5625C17.08 2.5 17.5 2.92 17.5 3.4375V16.5625C17.5 17.08 17.08 17.5 16.5625 17.5H14.6875C14.4389 17.5 14.2004 17.4012 14.0246 17.2254C13.8488 17.0496 13.75 16.8111 13.75 16.5625V3.4375Z" stroke="#929292" stroke-width="1.5" stroke-linecap="round" stroke-linejoin="round"/>
</svg>
