<svg width="16" height="16" viewBox="0 0 16 16" fill="none" xmlns="http://www.w3.org/2000/svg">
<path fill-rule="evenodd" clip-rule="evenodd" d="M5.00002 4C5.00002 3.20435 5.31609 2.44129 5.8787 1.87868C6.44131 1.31607 7.20437 1 8.00002 1C8.79567 1 9.55873 1.31607 10.1213 1.87868C10.684 2.44129 11 3.20435 11 4C11 4.79565 10.684 5.55871 10.1213 6.12132C9.55873 6.68393 8.79567 7 8.00002 7C7.20437 7 6.44131 6.68393 5.8787 6.12132C5.31609 5.55871 5.00002 4.79565 5.00002 4ZM2.50069 13.4033C2.52317 11.9596 3.11245 10.5827 4.14133 9.56972C5.17021 8.55674 6.55616 7.98897 8.00002 7.98897C9.44388 7.98897 10.8298 8.55674 11.8587 9.56972C12.8876 10.5827 13.4769 11.9596 13.4994 13.4033C13.5011 13.5005 13.4745 13.5961 13.4227 13.6784C13.371 13.7607 13.2964 13.8261 13.208 13.8667C11.5741 14.6158 9.79746 15.0024 8.00002 15C6.14269 15 4.37802 14.5947 2.79202 13.8667C2.70368 13.8261 2.62907 13.7607 2.57733 13.6784C2.52559 13.5961 2.49896 13.5005 2.50069 13.4033Z" fill="white"/>
</svg>
