<svg width="66" height="66" viewBox="0 0 66 66" fill="none" xmlns="http://www.w3.org/2000/svg">
<path d="M40.8567 46.9755C45.9805 46.3688 51.0148 45.1596 55.8552 43.373C51.756 38.8322 49.4909 32.9299 49.4999 26.8125V24.75C49.4999 20.3739 47.7616 16.1771 44.6672 13.0827C41.5729 9.98839 37.376 8.25 32.9999 8.25C28.6239 8.25 24.427 9.98839 21.3327 13.0827C18.2383 16.1771 16.4999 20.3739 16.4999 24.75V26.8125C16.5082 32.9302 14.2422 38.8326 10.1419 43.373C14.9077 45.133 19.9319 46.3568 25.1432 46.9755M40.8567 46.9755C35.6372 47.5946 30.3627 47.5946 25.1432 46.9755M40.8567 46.9755C41.253 48.2126 41.3515 49.5258 41.1443 50.8082C40.9371 52.0906 40.43 53.306 39.6642 54.3553C38.8985 55.4047 37.8958 56.2584 36.7377 56.8469C35.5797 57.4355 34.299 57.7422 32.9999 57.7422C31.7009 57.7422 30.4202 57.4355 29.2622 56.8469C28.1041 56.2584 27.1014 55.4047 26.3356 54.3553C25.5699 53.306 25.0628 52.0906 24.8556 50.8082C24.6484 49.5258 24.7469 48.2126 25.1432 46.9755M8.59094 20.625C9.36636 16.0187 11.4339 11.7272 14.5529 8.25M51.4469 8.25C54.566 11.7272 56.6335 16.0187 57.4089 20.625" stroke="#929292" stroke-width="1.5" stroke-linecap="round" stroke-linejoin="round"/>
</svg>
