<svg width="16" height="16" viewBox="0 0 16 16" fill="none" xmlns="http://www.w3.org/2000/svg">
<path fill-rule="evenodd" clip-rule="evenodd" d="M4.64665 1.64665C4.7404 1.55302 4.86748 1.50043 4.99998 1.50043C5.13248 1.50043 5.25956 1.55302 5.35331 1.64665L8.35331 4.64665C8.44163 4.74144 8.48972 4.8668 8.48743 4.99634C8.48514 5.12587 8.43267 5.24946 8.34106 5.34107C8.24945 5.43268 8.12586 5.48515 7.99633 5.48744C7.86679 5.48972 7.74143 5.44164 7.64665 5.35332L5.49998 3.20665V11C5.49998 11.1326 5.4473 11.2598 5.35353 11.3535C5.25976 11.4473 5.13259 11.5 4.99998 11.5C4.86737 11.5 4.74019 11.4473 4.64643 11.3535C4.55266 11.2598 4.49998 11.1326 4.49998 11V3.20665L2.35331 5.35332C2.25853 5.44164 2.13316 5.48972 2.00363 5.48744C1.8741 5.48515 1.75051 5.43268 1.6589 5.34107C1.56729 5.24946 1.51481 5.12587 1.51253 4.99634C1.51024 4.8668 1.55833 4.74144 1.64665 4.64665L4.64665 1.64665ZM11 4.49999C11.1326 4.49999 11.2598 4.55267 11.3535 4.64643C11.4473 4.7402 11.5 4.86738 11.5 4.99999V12.7933L13.6466 10.6467C13.6924 10.5975 13.7476 10.5581 13.809 10.5308C13.8703 10.5035 13.9365 10.4888 14.0036 10.4876C14.0708 10.4864 14.1375 10.4988 14.1997 10.5239C14.262 10.5491 14.3185 10.5865 14.366 10.634C14.4135 10.6814 14.4509 10.738 14.4761 10.8003C14.5012 10.8625 14.5136 10.9292 14.5124 10.9963C14.5112 11.0635 14.4965 11.1297 14.4692 11.191C14.4418 11.2523 14.4024 11.3075 14.3533 11.3533L11.3533 14.3533C11.2596 14.447 11.1325 14.4995 11 14.4995C10.8675 14.4995 10.7404 14.447 10.6466 14.3533L7.64665 11.3533C7.59752 11.3075 7.55812 11.2523 7.53079 11.191C7.50346 11.1297 7.48877 11.0635 7.48758 10.9963C7.4864 10.9292 7.49875 10.8625 7.5239 10.8003C7.54904 10.738 7.58647 10.6814 7.63395 10.634C7.68143 10.5865 7.73799 10.5491 7.80025 10.5239C7.86251 10.4988 7.92919 10.4864 7.99633 10.4876C8.06346 10.4888 8.12967 10.5035 8.191 10.5308C8.25234 10.5581 8.30754 10.5975 8.35331 10.6467L10.5 12.7933V4.99999C10.5 4.86738 10.5527 4.7402 10.6464 4.64643C10.7402 4.55267 10.8674 4.49999 11 4.49999Z" fill="white"/>
</svg>
