<svg width="16" height="16" viewBox="0 0 16 16" fill="none" xmlns="http://www.w3.org/2000/svg">
<path fill-rule="evenodd" clip-rule="evenodd" d="M7.14665 7.64668C7.05302 7.74043 7.00043 7.86751 7.00043 8.00001C7.00043 8.13251 7.05302 8.25959 7.14665 8.35334L12.1467 13.3533C12.1924 13.4025 12.2476 13.4419 12.309 13.4692C12.3703 13.4965 12.4365 13.5112 12.5036 13.5124C12.5708 13.5136 12.6375 13.5012 12.6997 13.4761C12.762 13.4509 12.8185 13.4135 12.866 13.366C12.9135 13.3186 12.9509 13.262 12.9761 13.1997C13.0012 13.1375 13.0136 13.0708 13.0124 13.0037C13.0112 12.9365 12.9965 12.8703 12.9692 12.809C12.9418 12.7477 12.9024 12.6925 12.8533 12.6467L8.20665 8.00001L12.8533 3.35334C12.9416 3.25856 12.9897 3.1332 12.9874 3.00366C12.9852 2.87413 12.9327 2.75054 12.8411 2.65893C12.7495 2.56732 12.6259 2.51485 12.4963 2.51256C12.3668 2.51027 12.2414 2.55836 12.1467 2.64668L7.14665 7.64668Z" fill="#0590F5"/>
<path fill-rule="evenodd" clip-rule="evenodd" d="M3.14665 7.64668C3.05302 7.74043 3.00043 7.86751 3.00043 8.00001C3.00043 8.13251 3.05302 8.25959 3.14665 8.35334L8.14665 13.3533C8.19243 13.4025 8.24763 13.4419 8.30896 13.4692C8.37029 13.4965 8.4365 13.5112 8.50364 13.5124C8.57077 13.5136 8.63746 13.5012 8.69972 13.4761C8.76198 13.4509 8.81853 13.4135 8.86601 13.366C8.91349 13.3186 8.95092 13.262 8.97607 13.1997C9.00122 13.1375 9.01357 13.0708 9.01238 13.0037C9.0112 12.9365 8.9965 12.8703 8.96917 12.809C8.94185 12.7477 8.90244 12.6925 8.85332 12.6467L4.20665 8.00001L8.85332 3.35334C8.94164 3.25856 8.98972 3.1332 8.98744 3.00366C8.98515 2.87413 8.93268 2.75054 8.84107 2.65893C8.74946 2.56732 8.62587 2.51485 8.49634 2.51256C8.3668 2.51027 8.24144 2.55836 8.14665 2.64668L3.14665 7.64668Z" fill="#0590F5"/>
</svg>
