<svg width="12" height="12" viewBox="0 0 12 12" fill="none" xmlns="http://www.w3.org/2000/svg">
<path fill-rule="evenodd" clip-rule="evenodd" d="M6 1.125C3.3075 1.125 1.125 3.3075 1.125 6C1.125 8.6925 3.3075 10.875 6 10.875C8.6925 10.875 10.875 8.6925 10.875 6C10.875 3.3075 8.6925 1.125 6 1.125ZM5.14 4.61C5.10567 4.57316 5.06427 4.54361 5.01827 4.52311C4.97227 4.50261 4.92261 4.49159 4.87226 4.4907C4.82191 4.48982 4.7719 4.49908 4.7252 4.51794C4.67851 4.5368 4.63609 4.56487 4.60048 4.60048C4.56487 4.63609 4.5368 4.67851 4.51794 4.7252C4.49908 4.7719 4.48982 4.82191 4.4907 4.87226C4.49159 4.92261 4.50261 4.97227 4.52311 5.01827C4.54361 5.06427 4.57316 5.10567 4.61 5.14L5.47 6L4.61 6.86C4.57316 6.89433 4.54361 6.93573 4.52311 6.98173C4.50261 7.02773 4.49159 7.07739 4.4907 7.12774C4.48982 7.17809 4.49908 7.2281 4.51794 7.2748C4.5368 7.32149 4.56487 7.36391 4.60048 7.39952C4.63609 7.43513 4.67851 7.4632 4.7252 7.48206C4.7719 7.50092 4.82191 7.51018 4.87226 7.5093C4.92261 7.50841 4.97227 7.49739 5.01827 7.47689C5.06427 7.45639 5.10567 7.42684 5.14 7.39L6 6.53L6.86 7.39C6.89433 7.42684 6.93573 7.45639 6.98173 7.47689C7.02773 7.49739 7.07739 7.50841 7.12774 7.5093C7.17809 7.51018 7.2281 7.50092 7.2748 7.48206C7.32149 7.4632 7.36391 7.43513 7.39952 7.39952C7.43513 7.36391 7.4632 7.32149 7.48206 7.2748C7.50092 7.2281 7.51018 7.17809 7.5093 7.12774C7.50841 7.07739 7.49739 7.02773 7.47689 6.98173C7.45639 6.93573 7.42684 6.89433 7.39 6.86L6.53 6L7.39 5.14C7.42684 5.10567 7.45639 5.06427 7.47689 5.01827C7.49739 4.97227 7.50841 4.92261 7.5093 4.87226C7.51018 4.82191 7.50092 4.7719 7.48206 4.7252C7.4632 4.67851 7.43513 4.63609 7.39952 4.60048C7.36391 4.56487 7.32149 4.5368 7.2748 4.51794C7.2281 4.49908 7.17809 4.48982 7.12774 4.4907C7.07739 4.49159 7.02773 4.50261 6.98173 4.52311C6.93573 4.54361 6.89433 4.57316 6.86 4.61L6 5.47L5.14 4.61Z" fill="white"/>
</svg>
