<svg width="12" height="12" viewBox="0 0 12 12" fill="none" xmlns="http://www.w3.org/2000/svg">
<path fill-rule="evenodd" clip-rule="evenodd" d="M3.16499 3.16499C3.05966 3.27046 3.00049 3.41343 3.00049 3.56249C3.00049 3.71156 3.05966 3.85452 3.16499 3.95999L7.07999 7.87499H4.31249C4.16331 7.87499 4.02023 7.93426 3.91475 8.03975C3.80926 8.14524 3.74999 8.28831 3.74999 8.43749C3.74999 8.58668 3.80926 8.72975 3.91475 8.83524C4.02023 8.94073 4.16331 8.99999 4.31249 8.99999H8.43749C8.58668 8.99999 8.72975 8.94073 8.83524 8.83524C8.94073 8.72975 8.99999 8.58668 8.99999 8.43749V4.31249C8.99999 4.16331 8.94073 4.02023 8.83524 3.91475C8.72975 3.80926 8.58668 3.74999 8.43749 3.74999C8.28831 3.74999 8.14524 3.80926 8.03975 3.91475C7.93426 4.02023 7.87499 4.16331 7.87499 4.31249V7.07999L3.95999 3.16499C3.85452 3.05966 3.71156 3.00049 3.56249 3.00049C3.41343 3.00049 3.27046 3.05966 3.16499 3.16499Z" fill="#F23645"/>
</svg>
