<svg width="12" height="12" viewBox="0 0 12 12" fill="none" xmlns="http://www.w3.org/2000/svg">
<path fill-rule="evenodd" clip-rule="evenodd" d="M3.16499 8.835C3.05966 8.72953 3.00049 8.58656 3.00049 8.4375C3.00049 8.28844 3.05966 8.14547 3.16499 8.04L7.07999 4.125H4.31249C4.16331 4.125 4.02023 4.06574 3.91475 3.96025C3.80926 3.85476 3.74999 3.71168 3.74999 3.5625C3.74999 3.41331 3.80926 3.27024 3.91475 3.16475C4.02023 3.05926 4.16331 3 4.31249 3H8.43749C8.58668 3 8.72975 3.05926 8.83524 3.16475C8.94073 3.27024 8.99999 3.41331 8.99999 3.5625V7.6875C8.99999 7.83668 8.94073 7.97976 8.83524 8.08525C8.72975 8.19074 8.58668 8.25 8.43749 8.25C8.28831 8.25 8.14524 8.19074 8.03975 8.08525C7.93426 7.97976 7.87499 7.83668 7.87499 7.6875V4.92L3.95999 8.835C3.85452 8.94034 3.71156 8.9995 3.56249 8.9995C3.41343 8.9995 3.27046 8.94034 3.16499 8.835Z" fill="#089949"/>
</svg>
