<svg width="86" height="12" viewBox="0 0 86 12" fill="none" xmlns="http://www.w3.org/2000/svg">
<path d="M0.232544 2.62978V0.810242H9.0251V2.62978H0.232544ZM3.59999 11.3777V1.02978H5.65766V11.3702L3.59999 11.3777Z" fill="white"/>
<path d="M8.74231 11.3703V4.11817H10.7107V11.3777L8.74231 11.3703ZM10.7107 7.35538L9.94417 6.84562C9.98583 6.0785 10.2582 5.34185 10.7256 4.73213C10.9566 4.47035 11.2442 4.26462 11.5665 4.13052C11.8889 3.99642 12.2375 3.93748 12.586 3.95817C12.9095 3.95375 13.2307 4.01318 13.5311 4.13306C13.8269 4.25809 14.0894 4.45049 14.2977 4.69492L13.066 6.10887C12.9547 5.99042 12.8188 5.89772 12.6679 5.83725C12.4974 5.77531 12.3171 5.74504 12.1358 5.74794C11.946 5.74086 11.7567 5.7725 11.5795 5.84095C11.4023 5.9094 11.2409 6.01322 11.1051 6.14608C10.9629 6.3117 10.8548 6.50381 10.7871 6.71135C10.7194 6.91889 10.6935 7.13776 10.7107 7.35538Z" fill="white"/>
<path d="M18.093 11.5228C17.4994 11.5337 16.9128 11.3929 16.3888 11.1135C15.9038 10.8578 15.5002 10.4711 15.2242 9.99726C14.9355 9.49001 14.7901 8.91379 14.8037 8.33029V4.11819H16.787V8.28192C16.7795 8.54768 16.8303 8.81185 16.9358 9.05587C17.0293 9.26396 17.1889 9.43533 17.3898 9.54331C17.6069 9.65477 17.8491 9.70858 18.093 9.69959C18.2709 9.71006 18.449 9.68227 18.6153 9.61808C18.7815 9.55389 18.932 9.4548 19.0568 9.3275C19.3034 9.03413 19.4273 8.65694 19.4028 8.27447V4.11819H21.3674V8.32657C21.3809 8.91384 21.2383 9.49417 20.9544 10.0084C20.6841 10.4841 20.2823 10.8717 19.7972 11.1247C19.2716 11.3983 18.6855 11.5352 18.093 11.5228Z" fill="white"/>
<path d="M26.4056 11.5228C25.6975 11.5362 24.9978 11.367 24.374 11.0317C23.795 10.7206 23.3095 10.2608 22.9675 9.69958C22.6172 9.11932 22.4287 8.45583 22.4215 7.77807C22.4144 7.10032 22.5889 6.43301 22.9269 5.84551C23.2649 5.258 23.7541 4.77172 24.3436 4.43721C24.9331 4.1027 25.6014 3.93216 26.2791 3.9433C26.931 3.92982 27.5743 4.09449 28.1396 4.41958C28.6703 4.7264 29.1066 5.17301 29.4009 5.71074C29.7146 6.27996 29.8737 6.9214 29.8623 7.57121C29.8622 7.70423 29.8548 7.83715 29.84 7.96935C29.8208 8.1235 29.7922 8.27634 29.7544 8.42702H23.6521V6.93865H28.8391L28.0428 7.55632C28.0356 7.18361 27.956 6.81586 27.8084 6.47353C27.685 6.19688 27.4815 5.96357 27.2242 5.80377C26.9372 5.64264 26.6118 5.56288 26.2828 5.57307C25.9242 5.56393 25.5701 5.65407 25.2596 5.83353C24.9691 6.01056 24.7374 6.26946 24.5935 6.57772C24.4307 6.92687 24.3504 7.30884 24.3591 7.694C24.3484 8.09174 24.4339 8.48617 24.6084 8.84377C24.7649 9.15898 25.0142 9.41868 25.3228 9.58795C25.6526 9.77049 26.0251 9.8617 26.4019 9.85214C26.7397 9.86524 27.077 9.81345 27.3954 9.69958C27.6956 9.57322 27.9629 9.37975 28.1768 9.134L29.334 10.2912C28.9871 10.7009 28.5468 11.0212 28.0502 11.2252C27.5269 11.4313 26.968 11.5325 26.4056 11.5228Z" fill="white"/>
<path d="M34.2047 11.3702V0.802801H36.2512V11.3702H34.2047ZM35.6037 11.3702V9.55071H38.294C38.9175 9.56511 39.5341 9.41768 40.0837 9.1228C40.5889 8.84163 41.0032 8.42209 41.2781 7.9135C41.5774 7.3401 41.7248 6.69957 41.706 6.05303C41.7207 5.42145 41.5706 4.79695 41.2707 4.24094C40.9894 3.73652 40.5733 3.32036 40.0688 3.03908C39.5241 2.74543 38.9126 2.598 38.294 2.61117H35.5591V0.791639H38.3237C39.065 0.778511 39.8021 0.90473 40.4967 1.16373C41.1465 1.41694 41.7396 1.79633 42.2419 2.28001C42.7362 2.75468 43.1298 3.32417 43.3991 3.95443C43.9602 5.31812 43.9589 6.84846 43.3953 8.21117C43.1277 8.84691 42.7337 9.4217 42.2374 9.90075C41.7411 10.3798 41.1527 10.7531 40.5079 10.9982C39.8195 11.2629 39.0873 11.3954 38.3498 11.3888L35.6037 11.3702Z" fill="white"/>
<path d="M48.6977 11.5228C47.9895 11.5362 47.2899 11.367 46.666 11.0317C46.0847 10.7225 45.5976 10.2623 45.2558 9.69958C44.9206 9.10644 44.7444 8.43671 44.7444 7.7554C44.7444 7.07409 44.9206 6.40436 45.2558 5.81121C45.598 5.23876 46.0841 4.76583 46.6657 4.43945C47.2473 4.11306 47.9042 3.94458 48.5711 3.95075C49.2231 3.93727 49.8663 4.10194 50.4316 4.42703C50.9621 4.73541 51.3992 5.18156 51.6967 5.71819C52.0081 6.28814 52.1658 6.9293 52.1544 7.57865C52.1543 7.71168 52.1468 7.84459 52.1321 7.97679C52.1321 8.11075 52.0874 8.2633 52.0502 8.43447H45.9442V6.94609H51.1311L50.3349 7.56377C50.3294 7.19086 50.2497 6.82277 50.1005 6.48098C49.9771 6.20432 49.7736 5.97102 49.5163 5.81121C49.2293 5.65008 48.9038 5.57032 48.5749 5.58051C48.2175 5.57148 47.8646 5.66164 47.5553 5.84098C47.2629 6.01674 47.0297 6.27589 46.8856 6.58516C46.7227 6.93431 46.6425 7.31628 46.6511 7.70144C46.6405 8.09918 46.726 8.49362 46.9004 8.85121C47.057 9.16642 47.3063 9.42613 47.6149 9.5954C47.9459 9.77825 48.3196 9.86944 48.6977 9.85958C49.0415 9.86363 49.3827 9.80043 49.7023 9.67354C50.0026 9.54718 50.2699 9.3537 50.4837 9.10796L51.6409 10.2652C51.2941 10.6749 50.8538 10.9952 50.3572 11.1991C49.831 11.4161 49.2668 11.5262 48.6977 11.5228Z" fill="white"/>
<path d="M52.56 5.83726V4.11819H57.9256V5.8447L52.56 5.83726ZM54.2567 11.3703V1.08936H56.2288V11.3703H54.2567Z" fill="white"/>
<path d="M62.3312 11.5228C61.623 11.5362 60.9234 11.367 60.2995 11.0317C59.4185 10.5252 58.7744 9.68993 58.5086 8.70908C58.2428 7.72824 58.3771 6.68201 58.8819 5.80004C59.2131 5.23711 59.6866 4.77127 60.2549 4.44935C60.8437 4.10921 61.5135 3.93438 62.1935 3.9433C62.8454 3.92982 63.4887 4.09449 64.054 4.41958C64.5852 4.72692 65.0226 5.17332 65.3191 5.71074C65.6304 6.28069 65.7882 6.92185 65.7767 7.57121C65.7766 7.70423 65.7692 7.83715 65.7544 7.96935C65.7544 8.1033 65.7098 8.25586 65.6726 8.42702H59.5665V6.93865H64.7535L63.9572 7.55632C63.9511 7.18387 63.8727 6.81615 63.7265 6.47353C63.6018 6.19662 63.397 5.96336 63.1386 5.80377C62.8516 5.64264 62.5262 5.56288 62.1972 5.57307C61.8398 5.56404 61.4869 5.65419 61.1777 5.83353C60.8871 6.01153 60.6544 6.27005 60.5079 6.57772C60.3484 6.93482 60.266 7.32152 60.266 7.71261C60.266 8.10369 60.3484 8.49039 60.5079 8.84749C60.6644 9.1627 60.9138 9.42241 61.2223 9.59167C61.5533 9.77452 61.9271 9.86572 62.3051 9.85586C62.6501 9.85982 62.9926 9.79663 63.3135 9.66981C63.6127 9.54155 63.8796 9.34836 64.0949 9.10423L65.2521 10.2614C64.9031 10.6705 64.4618 10.9906 63.9647 11.1954C63.4469 11.4106 62.8919 11.5219 62.3312 11.5228Z" fill="white"/>
<path d="M70.4168 11.5228C69.7187 11.5328 69.0301 11.361 68.4186 11.0242C67.5438 10.5175 66.9053 9.68487 66.6431 8.70851C66.3809 7.73215 66.5163 6.69167 67.0195 5.81489C67.3606 5.24623 67.8458 4.77773 68.4261 4.45675C69.0336 4.11588 69.7202 3.94132 70.4168 3.95071C70.9589 3.94585 71.4961 4.05355 71.9944 4.26699C72.4711 4.47535 72.8975 4.78371 73.2447 5.17117L71.9795 6.44745C71.7924 6.24176 71.5608 6.08142 71.3023 5.97861C71.0225 5.86465 70.7226 5.80773 70.4205 5.81117C70.0815 5.80655 69.7475 5.89262 69.453 6.06047C69.1707 6.21603 68.9354 6.44484 68.7721 6.7228C68.5989 7.03136 68.5127 7.38118 68.5228 7.73489C68.5151 8.08953 68.6011 8.43992 68.7721 8.7507C68.9282 9.03713 69.1598 9.27523 69.4419 9.43908C69.7364 9.60693 70.0704 9.693 70.4093 9.68838C70.7171 9.69253 71.0224 9.63298 71.3061 9.5135C71.5681 9.39978 71.801 9.22801 71.987 9.01117L73.267 10.2875C72.9089 10.6795 72.4729 10.9925 71.987 11.2065C71.4909 11.419 70.9564 11.5266 70.4168 11.5228Z" fill="white"/>
<path d="M73.6353 5.83726V4.11819H79.0009V5.8447L73.6353 5.83726ZM75.3321 11.3703V1.08936H77.3004V11.3703H75.3321Z" fill="white"/>
<path d="M82.4651 11.5377C82.0562 11.538 81.6492 11.4816 81.2558 11.3703C80.8745 11.2644 80.5082 11.1106 80.1656 10.9126C79.843 10.7231 79.5538 10.4817 79.3098 10.1982L80.4818 9.0112C80.7208 9.284 81.0185 9.49901 81.3525 9.64004C81.7002 9.78475 82.0737 9.85693 82.4502 9.85213C82.7055 9.86877 82.961 9.82278 83.1944 9.71818C83.2706 9.68171 83.3346 9.62405 83.3788 9.55211C83.423 9.48018 83.4456 9.39702 83.4437 9.3126C83.4457 9.21795 83.4222 9.1245 83.3758 9.04202C83.3293 8.95955 83.2615 8.89107 83.1795 8.84376C82.9558 8.72155 82.715 8.63374 82.4651 8.5833C82.186 8.50516 81.8921 8.4233 81.587 8.32655C81.2824 8.23267 80.9881 8.10799 80.7088 7.95446C80.4288 7.80097 80.193 7.57801 80.0242 7.30702C79.8354 6.98108 79.7437 6.60797 79.76 6.23167C79.7499 5.80618 79.8679 5.38747 80.0986 5.02981C80.3394 4.67692 80.6765 4.40056 81.0698 4.23353C81.5398 4.03299 82.0472 3.9353 82.5581 3.94702C83.1185 3.94002 83.6744 4.04765 84.1916 4.2633C84.6698 4.47003 85.0864 4.79689 85.4009 5.21213L84.2139 6.39911C84.0164 6.14646 83.7612 5.94486 83.4698 5.8112C83.1875 5.69094 82.8835 5.63014 82.5767 5.6326C82.3457 5.61896 82.115 5.6651 81.907 5.76655C81.8371 5.80055 81.7781 5.85341 81.7367 5.91916C81.6953 5.98491 81.673 6.06094 81.6725 6.13865C81.6724 6.22653 81.6971 6.31267 81.7438 6.38708C81.7906 6.4615 81.8575 6.52114 81.9367 6.55911C82.1525 6.6765 82.3827 6.7653 82.6214 6.8233C82.9004 6.89771 83.1944 6.9833 83.4995 7.08004C83.8059 7.17423 84.0986 7.30808 84.3702 7.47818C84.6513 7.64045 84.8909 7.86593 85.0698 8.13679C85.2572 8.46596 85.3487 8.84105 85.3339 9.21957C85.3471 9.542 85.2846 9.86303 85.1515 10.157C85.0184 10.451 84.8184 10.7097 84.5674 10.9126C83.9613 11.3604 83.2174 11.5816 82.4651 11.5377Z" fill="white"/>
</svg>
