<svg width="136" height="32" viewBox="0 0 136 32" fill="none" xmlns="http://www.w3.org/2000/svg">
<path d="M22.9619 28.7516C21.9528 28.7524 20.9468 28.6401 19.9628 28.4167L20.3944 26.5116C21.2374 26.6991 22.0983 26.794 22.9619 26.7944C25.7301 26.7936 28.4071 25.8047 30.511 24.0056C32.6148 22.2065 34.0073 19.7154 34.4378 16.9809C34.8682 14.2463 34.3084 11.448 32.8589 9.08952C31.4095 6.73109 29.1658 4.96755 26.5317 4.1164C23.8975 3.26525 21.0461 3.38239 18.4907 4.44675C15.9353 5.51111 13.8438 7.45276 12.5927 9.92213C11.3416 12.3915 11.0132 15.2264 11.6665 17.9164C12.3198 20.6064 13.9119 22.9749 16.1563 24.5953L15.0102 26.1804C12.3883 24.2865 10.5286 21.5188 9.76589 18.3755C9.00322 15.2323 9.38768 11.92 10.8501 9.03506C12.3125 6.15009 14.7567 3.88193 17.7428 2.63893C20.7288 1.39592 24.0605 1.25972 27.1381 2.25485C30.2156 3.24998 32.8369 5.31106 34.5299 8.06704C36.2228 10.823 36.8764 14.0928 36.3728 17.2878C35.8692 20.4829 34.2416 23.3931 31.783 25.4948C29.3244 27.5964 26.1963 28.7513 22.9619 28.7516Z" fill="url(#paint0_radial_2127_386)"/>
<path d="M17.1795 32C16.3838 32.0008 15.6058 31.7655 14.9438 31.324C14.2819 30.8824 13.7658 30.2545 13.4607 29.5196C13.1557 28.7846 13.0755 27.9758 13.2303 27.1953C13.3851 26.4148 13.7679 25.6977 14.3303 25.1348C14.8927 24.5719 15.6094 24.1884 16.3897 24.0329C17.1701 23.8774 17.979 23.9569 18.7142 24.2612C19.4494 24.5655 20.0779 25.0811 20.52 25.7426C20.9621 26.4042 21.1981 27.182 21.1981 27.9777C21.1981 29.0439 20.7749 30.0664 20.0213 30.8206C19.2678 31.5748 18.2457 31.999 17.1795 32ZM17.1795 25.9163C16.7709 25.9163 16.3715 26.0375 16.0318 26.2646C15.6921 26.4917 15.4275 26.8144 15.2713 27.192C15.1151 27.5696 15.0744 27.985 15.1544 28.3857C15.2344 28.7864 15.4314 29.1543 15.7206 29.443C16.0098 29.7317 16.3781 29.9281 16.7789 30.0073C17.1798 30.0866 17.5951 30.0452 17.9724 29.8883C18.3497 29.7314 18.672 29.4661 18.8984 29.126C19.1249 28.7859 19.2454 28.3863 19.2447 27.9777C19.2451 27.7062 19.1921 27.4373 19.0885 27.1863C18.985 26.9353 18.8329 26.7072 18.6411 26.515C18.4493 26.3229 18.2215 26.1704 17.9707 26.0664C17.7199 25.9624 17.451 25.9089 17.1795 25.9089V25.9163Z" fill="url(#paint1_radial_2127_386)"/>
<path d="M11.7321 8.03721C10.9373 8.03721 10.1603 7.80152 9.49948 7.35995C8.83862 6.91838 8.32354 6.29076 8.01938 5.55646C7.71523 4.82215 7.63565 4.01415 7.7907 3.23462C7.94576 2.45508 8.3285 1.73904 8.89051 1.17702C9.45252 0.615012 10.1686 0.232277 10.9481 0.0772182C11.7276 -0.0778406 12.5356 0.00174121 13.2699 0.3059C14.0043 0.610058 14.6319 1.12513 15.0734 1.78599C15.515 2.44685 15.7507 3.2238 15.7507 4.01861C15.7497 5.0841 15.326 6.10568 14.5726 6.8591C13.8192 7.61252 12.7976 8.03623 11.7321 8.03721ZM11.7321 1.95349C11.3235 1.95275 10.9239 2.07324 10.5838 2.29971C10.2437 2.52618 9.9784 2.84845 9.82152 3.22574C9.66465 3.60302 9.62322 4.01837 9.70248 4.4192C9.78174 4.82004 9.97814 5.18836 10.2668 5.47754C10.5555 5.76673 10.9234 5.96378 11.3241 6.04376C11.7248 6.12375 12.1402 6.08307 12.5178 5.92688C12.8954 5.77068 13.2181 5.506 13.4452 5.16631C13.6723 4.82662 13.7935 4.42721 13.7935 4.01861C13.7925 3.47185 13.5751 2.94771 13.1889 2.56074C12.8026 2.17378 12.2788 1.95546 11.7321 1.95349Z" fill="url(#paint2_radial_2127_386)"/>
<path d="M41.9051 19.1925C41.1094 19.1933 40.3314 18.958 39.6694 18.5165C39.0075 18.0749 38.4913 17.447 38.1863 16.7121C37.8813 15.9772 37.8011 15.1683 37.9559 14.3878C38.1107 13.6073 38.4935 12.8902 39.0559 12.3273C39.6183 11.7644 40.335 11.381 41.1153 11.2255C41.8957 11.0699 42.7046 11.1494 43.4398 11.4537C44.175 11.758 44.8034 12.2736 45.2456 12.9351C45.6877 13.5967 45.9237 14.3745 45.9237 15.1702C45.9237 16.2364 45.5005 17.2589 44.7469 18.0131C43.9934 18.7673 42.9713 19.1916 41.9051 19.1925ZM41.9051 13.1088C41.4965 13.1088 41.0971 13.23 40.7574 13.4571C40.4177 13.6842 40.153 14.0069 39.9969 14.3845C39.8407 14.7621 39.8 15.1775 39.88 15.5782C39.96 15.9789 40.157 16.3468 40.4462 16.6355C40.7354 16.9242 41.1037 17.1206 41.5045 17.1998C41.9054 17.2791 42.3207 17.2377 42.698 17.0808C43.0753 16.9239 43.3975 16.6586 43.624 16.3185C43.8505 15.9784 43.971 15.5788 43.9702 15.1702C43.9693 14.6232 43.7512 14.0988 43.3641 13.7124C42.9769 13.3259 42.4522 13.1088 41.9051 13.1088Z" fill="url(#paint3_radial_2127_386)"/>
<path d="M4.01861 25.8531C3.2238 25.8531 2.44685 25.6174 1.78599 25.1758C1.12513 24.7342 0.610058 24.1066 0.3059 23.3723C0.00174119 22.638 -0.0778406 21.83 0.0772182 21.0505C0.232277 20.2709 0.615013 19.5549 1.17702 18.9929C1.73904 18.4309 2.45508 18.0481 3.23462 17.8931C4.01415 17.738 4.82216 17.8176 5.55646 18.1218C6.29076 18.4259 6.91839 18.941 7.35995 19.6018C7.80152 20.2627 8.03721 21.0397 8.03721 21.8345C8.03622 22.9 7.61252 23.9215 6.8591 24.675C6.10568 25.4284 5.08411 25.8521 4.01861 25.8531ZM4.01861 19.7693C3.61017 19.7693 3.2109 19.8905 2.87129 20.1174C2.53168 20.3443 2.26699 20.6668 2.11069 21.0442C1.95438 21.4215 1.91349 21.8368 1.99317 22.2373C2.07285 22.6379 2.26954 23.0059 2.55835 23.2947C2.84716 23.5835 3.21513 23.7802 3.61572 23.8599C4.01632 23.9396 4.43154 23.8987 4.80889 23.7424C5.18624 23.5861 5.50877 23.3214 5.73569 22.9818C5.96261 22.6422 6.08372 22.2429 6.08372 21.8345C6.08274 21.2871 5.86485 20.7624 5.47778 20.3753C5.09071 19.9882 4.56601 19.7703 4.01861 19.7693Z" fill="url(#paint4_radial_2127_386)"/>
<path d="M19.3302 26.7907C19.1377 26.7893 18.9499 26.7311 18.7903 26.6235C18.6307 26.5159 18.5064 26.3636 18.4329 26.1857C18.3594 26.0077 18.34 25.8121 18.3772 25.6232C18.4144 25.4343 18.5064 25.2606 18.6419 25.1237L24.1451 19.6168H34.0726C34.3321 19.6168 34.581 19.7199 34.7645 19.9034C34.9481 20.0869 35.0512 20.3358 35.0512 20.5954C35.0512 20.8549 34.9481 21.1038 34.7645 21.2873C34.581 21.4709 34.3321 21.574 34.0726 21.574H24.9526L20.0223 26.5116C19.9309 26.6013 19.8228 26.6721 19.704 26.72C19.5853 26.7679 19.4583 26.7919 19.3302 26.7907Z" fill="url(#paint5_radial_2127_386)"/>
<path d="M21.4623 10.7163H17.4512C17.3217 10.7157 17.1937 10.689 17.0748 10.6379C16.9559 10.5867 16.8485 10.5122 16.7591 10.4186L13.1907 6.85025C13.0216 6.66435 12.9304 6.42051 12.9362 6.16925C12.942 5.918 13.0442 5.67858 13.2216 5.50063C13.3991 5.32268 13.6382 5.21983 13.8895 5.21339C14.1407 5.20696 14.3848 5.29743 14.5712 5.46606L17.8568 8.75165H21.4623C21.5957 8.74341 21.7293 8.76257 21.8549 8.80793C21.9806 8.85329 22.0956 8.9239 22.193 9.01541C22.2903 9.10691 22.3679 9.21738 22.4209 9.34C22.4739 9.46262 22.5013 9.5948 22.5013 9.72839C22.5013 9.86198 22.4739 9.99416 22.4209 10.1168C22.3679 10.2394 22.2903 10.3499 22.193 10.4414C22.0956 10.5329 21.9806 10.6035 21.8549 10.6489C21.7293 10.6942 21.5957 10.7134 21.4623 10.7051V10.7163Z" fill="url(#paint6_radial_2127_386)"/>
<path d="M12.4577 22.813H7.05861C6.79906 22.813 6.55015 22.7099 6.36663 22.5264C6.1831 22.3429 6.08 22.094 6.08 21.8344C6.08 21.5749 6.1831 21.326 6.36663 21.1424C6.55015 20.9589 6.79906 20.8558 7.05861 20.8558H12.0521L18.426 14.4819C18.5164 14.3903 18.6243 14.3178 18.7431 14.2686C18.862 14.2194 18.9895 14.1945 19.1181 14.1953H24.9377C25.071 14.1871 25.2046 14.2063 25.3303 14.2516C25.4559 14.297 25.571 14.3676 25.6683 14.4591C25.7656 14.5506 25.8432 14.6611 25.8962 14.7837C25.9492 14.9063 25.9766 15.0385 25.9766 15.1721C25.9766 15.3057 25.9492 15.4379 25.8962 15.5605C25.8432 15.6831 25.7656 15.7936 25.6683 15.8851C25.571 15.9766 25.4559 16.0472 25.3303 16.0925C25.2046 16.1379 25.071 16.1571 24.9377 16.1488H19.5237L13.146 22.5265C12.9634 22.7091 12.716 22.8121 12.4577 22.813Z" fill="url(#paint7_radial_2127_386)"/>
<path d="M11.9702 16.1488H6.88745C6.75411 16.1571 6.6205 16.1379 6.49484 16.0925C6.36918 16.0472 6.25415 15.9766 6.15682 15.8851C6.05949 15.7936 5.98192 15.6831 5.9289 15.5605C5.87588 15.4379 5.84853 15.3057 5.84853 15.1721C5.84853 15.0385 5.87588 14.9063 5.9289 14.7837C5.98192 14.6611 6.05949 14.5506 6.15682 14.4591C6.25415 14.3676 6.36918 14.297 6.49484 14.2516C6.6205 14.2063 6.75411 14.1871 6.88745 14.1953H11.9702C12.2189 14.2107 12.4523 14.3203 12.6229 14.5018C12.7935 14.6833 12.8885 14.923 12.8885 15.1721C12.8885 15.4212 12.7935 15.6609 12.6229 15.8424C12.4523 16.0239 12.2189 16.1335 11.9702 16.1488Z" fill="url(#paint8_radial_2127_386)"/>
<path d="M34.3293 10.7163H28.6102C28.4769 10.7245 28.3433 10.7054 28.2176 10.66C28.092 10.6146 27.9769 10.544 27.8796 10.4525C27.7823 10.361 27.7047 10.2505 27.6517 10.1279C27.5987 10.0053 27.5713 9.87312 27.5713 9.73953C27.5713 9.60594 27.5987 9.47376 27.6517 9.35114C27.7047 9.22852 27.7823 9.11805 27.8796 9.02655C27.9769 8.93504 28.092 8.86443 28.2176 8.81907C28.3433 8.77371 28.4769 8.75455 28.6102 8.76279H34.3293C34.4626 8.75455 34.5963 8.77371 34.7219 8.81907C34.8476 8.86443 34.9626 8.93504 35.0599 9.02655C35.1573 9.11805 35.2348 9.22852 35.2879 9.35114C35.3409 9.47376 35.3682 9.60594 35.3682 9.73953C35.3682 9.87312 35.3409 10.0053 35.2879 10.1279C35.2348 10.2505 35.1573 10.361 35.0599 10.4525C34.9626 10.544 34.8476 10.6146 34.7219 10.66C34.5963 10.7054 34.4626 10.7245 34.3293 10.7163Z" fill="url(#paint9_radial_2127_386)"/>
<path d="M38.8651 16.1489H32.0967C31.8481 16.1335 31.6147 16.0239 31.4441 15.8424C31.2734 15.6609 31.1785 15.4212 31.1785 15.1721C31.1785 14.923 31.2734 14.6833 31.4441 14.5018C31.6147 14.3203 31.8481 14.2107 32.0967 14.1954H38.8763C39.1249 14.2107 39.3583 14.3203 39.5289 14.5018C39.6996 14.6833 39.7946 14.923 39.7946 15.1721C39.7946 15.4212 39.6996 15.6609 39.5289 15.8424C39.3583 16.0239 39.1249 16.1335 38.8763 16.1489H38.8651Z" fill="url(#paint10_radial_2127_386)"/>
<path d="M50.2326 12.6297V10.8102H59.0251V12.6297H50.2326ZM53.6 21.3776V11.0297H55.6577V21.3702L53.6 21.3776Z" fill="white"/>
<path d="M58.7423 21.3702V14.1181H60.7107V21.3777L58.7423 21.3702ZM60.7107 17.3554L59.9442 16.8456C59.9858 16.0785 60.2582 15.3418 60.7256 14.7321C60.9566 14.4703 61.2442 14.2646 61.5665 14.1305C61.8889 13.9964 62.2375 13.9375 62.586 13.9581C62.9095 13.9537 63.2307 14.0131 63.5312 14.133C63.8269 14.2581 64.0894 14.4505 64.2977 14.6949L63.066 16.1088C62.9547 15.9904 62.8188 15.8977 62.6679 15.8372C62.4975 15.7753 62.3171 15.745 62.1358 15.7479C61.946 15.7408 61.7567 15.7725 61.5795 15.8409C61.4023 15.9094 61.2409 16.0132 61.1051 16.146C60.9629 16.3117 60.8548 16.5038 60.7872 16.7113C60.7195 16.9189 60.6935 17.1377 60.7107 17.3554Z" fill="white"/>
<path d="M68.093 21.5228C67.4994 21.5337 66.9128 21.3928 66.3888 21.1135C65.9038 20.8578 65.5002 20.471 65.2242 19.9972C64.9355 19.49 64.7901 18.9138 64.8037 18.3303V14.1182H66.787V18.2819C66.7794 18.5476 66.8303 18.8118 66.9358 19.0558C67.0292 19.2639 67.1888 19.4353 67.3898 19.5433C67.6069 19.6547 67.8491 19.7086 68.093 19.6996C68.2709 19.71 68.449 19.6822 68.6152 19.618C68.7815 19.5539 68.932 19.4548 69.0567 19.3275C69.3034 19.0341 69.4273 18.6569 69.4028 18.2744V14.1182H71.3674V18.3265C71.3809 18.9138 71.2383 19.4941 70.9544 20.0084C70.6841 20.4841 70.2823 20.8717 69.7972 21.1247C69.2716 21.3983 68.6855 21.5352 68.093 21.5228Z" fill="white"/>
<path d="M76.4056 21.5228C75.6974 21.5361 74.9978 21.367 74.374 21.0316C73.795 20.7206 73.3095 20.2608 72.9674 19.6996C72.6172 19.1193 72.4287 18.4558 72.4215 17.778C72.4144 17.1003 72.5889 16.433 72.9269 15.8455C73.2649 15.258 73.754 14.7717 74.3435 14.4372C74.933 14.1027 75.6014 13.9321 76.2791 13.9433C76.931 13.9298 77.5743 14.0945 78.1395 14.4195C78.6703 14.7264 79.1066 15.173 79.4009 15.7107C79.7146 16.2799 79.8736 16.9214 79.8623 17.5712C79.8622 17.7042 79.8548 17.8371 79.84 17.9693C79.8208 18.1235 79.7922 18.2763 79.7544 18.427H73.6521V16.9386H78.8391L78.0428 17.5563C78.0356 17.1836 77.9559 16.8158 77.8084 16.4735C77.685 16.1968 77.4815 15.9635 77.2242 15.8037C76.9372 15.6426 76.6117 15.5628 76.2828 15.573C75.9242 15.5639 75.5701 15.654 75.2595 15.8335C74.9691 16.0105 74.7373 16.2694 74.5935 16.5777C74.4306 16.9268 74.3504 17.3088 74.3591 17.694C74.3484 18.0917 74.4339 18.4861 74.6084 18.8437C74.7649 19.1589 75.0142 19.4187 75.3228 19.5879C75.6526 19.7705 76.0251 19.8617 76.4019 19.8521C76.7397 19.8652 77.077 19.8134 77.3953 19.6996C77.6956 19.5732 77.9629 19.3797 78.1767 19.134L79.334 20.2912C78.9871 20.7009 78.5468 21.0212 78.0502 21.2251C77.5269 21.4313 76.968 21.5325 76.4056 21.5228Z" fill="white"/>
<path d="M84.2047 21.3702V10.8027H86.2512V21.3702H84.2047ZM85.6037 21.3702V19.5506H88.294C88.9175 19.565 89.5341 19.4176 90.0837 19.1227C90.5889 18.8416 91.0032 18.422 91.2781 17.9134C91.5774 17.34 91.7248 16.6995 91.706 16.053C91.7207 15.4214 91.5706 14.7969 91.2707 14.2409C90.9894 13.7365 90.5733 13.3203 90.0688 13.039C89.5241 12.7454 88.9126 12.5979 88.294 12.6111H85.5591V10.7916H88.3237C89.065 10.7784 89.8021 10.9047 90.4967 11.1637C91.1465 11.4169 91.7396 11.7963 92.2419 12.2799C92.7362 12.7546 93.1298 13.3241 93.3991 13.9544C93.9602 15.3181 93.9589 16.8484 93.3953 18.2111C93.1277 18.8468 92.7337 19.4216 92.2374 19.9007C91.7411 20.3797 91.1527 20.7531 90.5079 20.9981C89.8195 21.2628 89.0873 21.3953 88.3498 21.3888L85.6037 21.3702Z" fill="white"/>
<path d="M98.6977 21.5228C97.9895 21.5361 97.2899 21.367 96.666 21.0316C96.0847 20.7225 95.5976 20.2623 95.2558 19.6996C94.9206 19.1064 94.7445 18.4367 94.7445 17.7554C94.7445 17.0741 94.9206 16.4043 95.2558 15.8112C95.598 15.2387 96.0841 14.7658 96.6657 14.4394C97.2473 14.113 97.9043 13.9445 98.5712 13.9507C99.2231 13.9372 99.8664 14.1019 100.432 14.427C100.962 14.7354 101.399 15.1815 101.697 15.7182C102.008 16.2881 102.166 16.9293 102.154 17.5786C102.154 17.7116 102.147 17.8446 102.132 17.9768C102.132 18.1107 102.087 18.2633 102.05 18.4344H95.9442V16.9461H101.131L100.335 17.5637C100.329 17.1908 100.25 16.8227 100.1 16.4809C99.9771 16.2043 99.7736 15.971 99.5163 15.8112C99.2293 15.6501 98.9038 15.5703 98.5749 15.5805C98.2175 15.5715 97.8646 15.6616 97.5553 15.8409C97.2629 16.0167 97.0297 16.2759 96.8856 16.5851C96.7227 16.9343 96.6425 17.3163 96.6512 17.7014C96.6405 18.0992 96.726 18.4936 96.9005 18.8512C97.057 19.1664 97.3063 19.4261 97.6149 19.5954C97.9459 19.7782 98.3197 19.8694 98.6977 19.8595C99.0415 19.8636 99.3828 19.8004 99.7023 19.6735C100.003 19.5471 100.27 19.3537 100.484 19.1079L101.641 20.2651C101.294 20.6748 100.854 20.9952 100.357 21.1991C99.831 21.4161 99.2669 21.5262 98.6977 21.5228Z" fill="white"/>
<path d="M102.56 15.8372V14.1181H107.926V15.8446L102.56 15.8372ZM104.257 21.3702V11.0893H106.229V21.3702H104.257Z" fill="white"/>
<path d="M112.331 21.5228C111.623 21.5361 110.923 21.367 110.3 21.0316C109.418 20.5252 108.774 19.6899 108.509 18.7091C108.243 17.7282 108.377 16.682 108.882 15.8C109.213 15.2371 109.687 14.7712 110.255 14.4493C110.844 14.1092 111.514 13.9343 112.193 13.9433C112.845 13.9298 113.489 14.0945 114.054 14.4195C114.585 14.7269 115.023 15.1733 115.319 15.7107C115.63 16.2807 115.788 16.9218 115.777 17.5712C115.777 17.7042 115.769 17.8371 115.754 17.9693C115.754 18.1033 115.71 18.2558 115.673 18.427H109.567V16.9386H114.753L113.957 17.5563C113.951 17.1838 113.873 16.8161 113.727 16.4735C113.602 16.1966 113.397 15.9633 113.139 15.8037C112.852 15.6426 112.526 15.5628 112.197 15.573C111.84 15.564 111.487 15.6542 111.178 15.8335C110.887 16.0115 110.654 16.27 110.508 16.5777C110.348 16.9348 110.266 17.3215 110.266 17.7126C110.266 18.1037 110.348 18.4904 110.508 18.8475C110.664 19.1627 110.914 19.4224 111.222 19.5916C111.553 19.7745 111.927 19.8657 112.305 19.8558C112.65 19.8598 112.993 19.7966 113.313 19.6698C113.613 19.5415 113.88 19.3483 114.095 19.1042L115.252 20.2614C114.903 20.6704 114.462 20.9906 113.965 21.1954C113.447 21.4106 112.892 21.5218 112.331 21.5228Z" fill="white"/>
<path d="M120.417 21.5228C119.719 21.5328 119.03 21.3609 118.419 21.0242C117.544 20.5175 116.905 19.6848 116.643 18.7085C116.381 17.7321 116.516 16.6916 117.02 15.8149C117.361 15.2462 117.846 14.7777 118.426 14.4567C119.034 14.1158 119.72 13.9413 120.417 13.9507C120.959 13.9458 121.496 14.0535 121.994 14.267C122.471 14.4753 122.897 14.7837 123.245 15.1711L121.98 16.4474C121.792 16.2417 121.561 16.0814 121.302 15.9786C121.022 15.8646 120.723 15.8077 120.42 15.8111C120.082 15.8065 119.748 15.8926 119.453 16.0604C119.171 16.216 118.935 16.4448 118.772 16.7228C118.599 17.0313 118.513 17.3811 118.523 17.7349C118.515 18.0895 118.601 18.4399 118.772 18.7507C118.928 19.0371 119.16 19.2752 119.442 19.439C119.736 19.6069 120.07 19.693 120.409 19.6884C120.717 19.6925 121.022 19.633 121.306 19.5135C121.568 19.3997 121.801 19.228 121.987 19.0111L123.267 20.2874C122.909 20.6795 122.473 20.9925 121.987 21.2065C121.491 21.4189 120.956 21.5266 120.417 21.5228Z" fill="white"/>
<path d="M123.635 15.8372V14.1181H129.001V15.8446L123.635 15.8372ZM125.332 21.3702V11.0893H127.3V21.3702H125.332Z" fill="white"/>
<path d="M132.465 21.5377C132.056 21.5379 131.649 21.4816 131.256 21.3702C130.875 21.2644 130.508 21.1106 130.166 20.9126C129.843 20.7231 129.554 20.4817 129.31 20.1981L130.482 19.0112C130.721 19.284 131.018 19.499 131.353 19.64C131.7 19.7847 132.074 19.8569 132.45 19.8521C132.705 19.8687 132.961 19.8228 133.194 19.7182C133.271 19.6817 133.335 19.624 133.379 19.5521C133.423 19.4801 133.446 19.397 133.444 19.3126C133.446 19.2179 133.422 19.1245 133.376 19.042C133.329 18.9595 133.262 18.891 133.18 18.8437C132.956 18.7215 132.715 18.6337 132.465 18.5833C132.186 18.5051 131.892 18.4233 131.587 18.3265C131.282 18.2326 130.988 18.108 130.709 17.9544C130.429 17.8009 130.193 17.578 130.024 17.307C129.835 16.981 129.744 16.6079 129.76 16.2316C129.75 15.8061 129.868 15.3874 130.099 15.0298C130.339 14.6769 130.677 14.4005 131.07 14.2335C131.54 14.033 132.047 13.9353 132.558 13.947C133.118 13.94 133.674 14.0476 134.192 14.2633C134.67 14.47 135.086 14.7969 135.401 15.2121L134.214 16.3991C134.016 16.1464 133.761 15.9448 133.47 15.8112C133.188 15.6909 132.884 15.6301 132.577 15.6326C132.346 15.6189 132.115 15.6651 131.907 15.7665C131.837 15.8005 131.778 15.8534 131.737 15.9191C131.695 15.9849 131.673 16.0609 131.673 16.1386C131.672 16.2265 131.697 16.3126 131.744 16.3871C131.791 16.4615 131.857 16.5211 131.937 16.5591C132.153 16.6765 132.383 16.7653 132.621 16.8233C132.9 16.8977 133.194 16.9833 133.5 17.08C133.806 17.1742 134.099 17.308 134.37 17.4781C134.651 17.6404 134.891 17.8659 135.07 18.1368C135.257 18.4659 135.349 18.841 135.334 19.2195C135.347 19.542 135.285 19.863 135.151 20.157C135.018 20.4509 134.818 20.7097 134.567 20.9126C133.961 21.3604 133.217 21.5816 132.465 21.5377Z" fill="white"/>
<defs>
<radialGradient id="paint0_radial_2127_386" cx="0" cy="0" r="1" gradientUnits="userSpaceOnUse" gradientTransform="translate(-0.479996 10.467) scale(46.0912 46.0912)">
<stop stop-color="#10ECFF"/>
<stop offset="0.5" stop-color="#777FFA"/>
<stop offset="1" stop-color="#CE20F3"/>
</radialGradient>
<radialGradient id="paint1_radial_2127_386" cx="0" cy="0" r="1" gradientUnits="userSpaceOnUse" gradientTransform="translate(-0.479996 10.467) scale(46.0912)">
<stop stop-color="#10ECFF"/>
<stop offset="0.5" stop-color="#777FFA"/>
<stop offset="1" stop-color="#CE20F3"/>
</radialGradient>
<radialGradient id="paint2_radial_2127_386" cx="0" cy="0" r="1" gradientUnits="userSpaceOnUse" gradientTransform="translate(-0.479998 10.467) scale(46.0912)">
<stop stop-color="#10ECFF"/>
<stop offset="0.5" stop-color="#777FFA"/>
<stop offset="1" stop-color="#CE20F3"/>
</radialGradient>
<radialGradient id="paint3_radial_2127_386" cx="0" cy="0" r="1" gradientUnits="userSpaceOnUse" gradientTransform="translate(-0.480001 10.467) scale(46.0912 46.0912)">
<stop stop-color="#10ECFF"/>
<stop offset="0.5" stop-color="#777FFA"/>
<stop offset="1" stop-color="#CE20F3"/>
</radialGradient>
<radialGradient id="paint4_radial_2127_386" cx="0" cy="0" r="1" gradientUnits="userSpaceOnUse" gradientTransform="translate(-0.479999 10.467) scale(46.0912 46.0912)">
<stop stop-color="#10ECFF"/>
<stop offset="0.5" stop-color="#777FFA"/>
<stop offset="1" stop-color="#CE20F3"/>
</radialGradient>
<radialGradient id="paint5_radial_2127_386" cx="0" cy="0" r="1" gradientUnits="userSpaceOnUse" gradientTransform="translate(-0.479999 10.467) scale(46.0912 46.0912)">
<stop stop-color="#10ECFF"/>
<stop offset="0.5" stop-color="#777FFA"/>
<stop offset="1" stop-color="#CE20F3"/>
</radialGradient>
<radialGradient id="paint6_radial_2127_386" cx="0" cy="0" r="1" gradientUnits="userSpaceOnUse" gradientTransform="translate(-0.479991 10.467) scale(46.0912 46.0912)">
<stop stop-color="#10ECFF"/>
<stop offset="0.5" stop-color="#777FFA"/>
<stop offset="1" stop-color="#CE20F3"/>
</radialGradient>
<radialGradient id="paint7_radial_2127_386" cx="0" cy="0" r="1" gradientUnits="userSpaceOnUse" gradientTransform="translate(-0.479995 10.467) scale(46.0912 46.0912)">
<stop stop-color="#10ECFF"/>
<stop offset="0.5" stop-color="#777FFA"/>
<stop offset="1" stop-color="#CE20F3"/>
</radialGradient>
<radialGradient id="paint8_radial_2127_386" cx="0" cy="0" r="1" gradientUnits="userSpaceOnUse" gradientTransform="translate(-0.479996 10.467) scale(46.0912 46.0912)">
<stop stop-color="#10ECFF"/>
<stop offset="0.5" stop-color="#777FFA"/>
<stop offset="1" stop-color="#CE20F3"/>
</radialGradient>
<radialGradient id="paint9_radial_2127_386" cx="0" cy="0" r="1" gradientUnits="userSpaceOnUse" gradientTransform="translate(-0.479993 10.467) scale(46.0912 46.0912)">
<stop stop-color="#10ECFF"/>
<stop offset="0.5" stop-color="#777FFA"/>
<stop offset="1" stop-color="#CE20F3"/>
</radialGradient>
<radialGradient id="paint10_radial_2127_386" cx="0" cy="0" r="1" gradientUnits="userSpaceOnUse" gradientTransform="translate(-0.479998 10.467) scale(46.0912 46.0912)">
<stop stop-color="#10ECFF"/>
<stop offset="0.5" stop-color="#777FFA"/>
<stop offset="1" stop-color="#CE20F3"/>
</radialGradient>
</defs>
</svg>
