<svg width="162" height="106" viewBox="0 0 162 106" fill="none" xmlns="http://www.w3.org/2000/svg">
<path d="M144.868 54.616C150.891 57.6435 158.132 57.1389 161 56.5082V105.075H81.058H1.11594V22.7634C16.8893 -12.0536 33.738 2.57962 40.1907 14.2484L51.3038 33.4861C56.203 42.737 71.3072 58.1481 92.5295 45.7856C113.752 33.423 125.51 38.3218 128.736 42.3165C131.604 45.1548 138.846 51.5884 144.868 54.616Z" fill="url(#paint0_linear_2200_338)"/>
<path d="M161 56.396C158.132 57.0255 150.891 57.5291 144.868 54.5076C138.846 51.4862 131.604 45.0656 128.736 42.233C125.51 38.2463 113.752 33.3575 92.5295 45.695C71.3072 58.0326 56.2031 42.6526 51.3038 33.4204L40.1908 14.2216C33.738 2.57648 17.3191 -11.827 1.54575 22.9196" stroke="#F23645" stroke-width="2"/>
<defs>
<linearGradient id="paint0_linear_2200_338" x1="96.5306" y1="-75.9253" x2="95.2318" y2="124.687" gradientUnits="userSpaceOnUse">
<stop stop-color="#F23645"/>
<stop offset="0.0001" stop-color="#F23645"/>
<stop offset="0.855" stop-color="#F23645" stop-opacity="0"/>
</linearGradient>
</defs>
</svg>
