<svg width="162" height="106" viewBox="0 0 162 106" fill="none" xmlns="http://www.w3.org/2000/svg">
<path d="M17.2477 54.616C11.2252 57.6435 3.98381 57.1389 1.11594 56.5082V105.075H81.058H161V22.7634C145.227 -12.0536 128.378 2.57962 121.925 14.2484L110.812 33.4861C105.913 42.737 90.8087 58.1481 69.5865 45.7856C48.3642 33.423 36.6059 38.3218 33.3795 42.3165C30.5117 45.1548 23.2703 51.5884 17.2477 54.616Z" fill="url(#paint0_linear_2200_256)"/>
<path d="M1.11594 56.396C3.98381 57.0255 11.2252 57.5291 17.2477 54.5076C23.2703 51.4862 30.5117 45.0656 33.3795 42.233C36.6059 38.2463 48.3642 33.3575 69.5865 45.695C90.8087 58.0326 105.913 42.6526 110.812 33.4204L121.925 14.2216C128.378 2.57648 144.797 -11.827 160.57 22.9196" stroke="#089949" stroke-width="2"/>
<defs>
<linearGradient id="paint0_linear_2200_256" x1="65.5853" y1="-75.9253" x2="66.8841" y2="124.687" gradientUnits="userSpaceOnUse">
<stop stop-color="#089949"/>
<stop offset="0.0001" stop-color="#089949"/>
<stop offset="0.855" stop-color="#089949" stop-opacity="0"/>
</linearGradient>
</defs>
</svg>
