<svg width="46" height="32" viewBox="0 0 46 32" fill="none" xmlns="http://www.w3.org/2000/svg">
<path d="M22.9618 28.7516C21.9528 28.7524 20.9468 28.6401 19.9628 28.4167L20.3944 26.5116C21.2374 26.6992 22.0983 26.794 22.9618 26.7944C25.7301 26.7937 28.4071 25.8047 30.5109 24.0056C32.6148 22.2065 34.0073 19.7155 34.4378 16.9809C34.8682 14.2464 34.3083 11.448 32.8589 9.08955C31.4095 6.73112 29.1658 4.96759 26.5316 4.11643C23.8975 3.26528 21.0461 3.38242 18.4907 4.44678C15.9353 5.51114 13.8437 7.45279 12.5927 9.92216C11.3416 12.3915 11.0131 15.2264 11.6664 17.9164C12.3198 20.6065 13.9119 22.9749 16.1563 24.5954L15.0102 26.1805C12.3883 24.2865 10.5286 21.5188 9.76588 18.3756C9.0032 15.2323 9.38766 11.9201 10.85 9.03509C12.3124 6.15012 14.7567 3.88196 17.7427 2.63896C20.7288 1.39595 24.0605 1.25975 27.1381 2.25488C30.2156 3.25001 32.8369 5.31109 34.5298 8.06707C36.2228 10.8231 36.8764 14.0929 36.3728 17.2879C35.8692 20.4829 34.2416 23.3932 31.783 25.4948C29.3244 27.5964 26.1963 28.7514 22.9618 28.7516Z" fill="url(#paint0_radial_2196_168)"/>
<path d="M17.1796 32C16.3839 32.0007 15.6058 31.7655 14.9439 31.3239C14.2819 30.8824 13.7658 30.2545 13.4608 29.5195C13.1557 28.7846 13.0756 27.9757 13.2303 27.1952C13.3851 26.4147 13.7679 25.6977 14.3303 25.1348C14.8927 24.5719 15.6094 24.1884 16.3897 24.0329C17.1701 23.8774 17.979 23.9568 18.7142 24.2612C19.4494 24.5655 20.0779 25.0811 20.52 25.7426C20.9622 26.4042 21.1982 27.182 21.1982 27.9777C21.1982 29.0438 20.7749 30.0664 20.0214 30.8206C19.2678 31.5748 18.2457 31.999 17.1796 32ZM17.1796 25.9163C16.771 25.9163 16.3715 26.0375 16.0318 26.2646C15.6922 26.4917 15.4275 26.8144 15.2713 27.192C15.1151 27.5695 15.0744 27.985 15.1544 28.3857C15.2344 28.7863 15.4314 29.1543 15.7206 29.443C16.0098 29.7316 16.3781 29.928 16.779 30.0073C17.1798 30.0866 17.5951 30.0451 17.9724 29.8882C18.3497 29.7314 18.672 29.4661 18.8984 29.126C19.1249 28.7859 19.2454 28.3863 19.2447 27.9777C19.2452 27.7062 19.1921 27.4372 19.0885 27.1862C18.985 26.9353 18.8329 26.7072 18.6411 26.515C18.4493 26.3229 18.2215 26.1704 17.9707 26.0664C17.7199 25.9624 17.4511 25.9088 17.1796 25.9088V25.9163Z" fill="url(#paint1_radial_2196_168)"/>
<path d="M11.7321 8.03721C10.9373 8.03721 10.1603 7.80152 9.49949 7.35995C8.83863 6.91838 8.32356 6.29076 8.0194 5.55646C7.71524 4.82215 7.63566 4.01415 7.79072 3.23462C7.94578 2.45508 8.32851 1.73904 8.89052 1.17702C9.45254 0.615012 10.1686 0.232277 10.9481 0.0772182C11.7276 -0.0778406 12.5357 0.00174121 13.27 0.3059C14.0043 0.610058 14.6319 1.12513 15.0735 1.78599C15.515 2.44685 15.7507 3.2238 15.7507 4.01861C15.7497 5.0841 15.326 6.10568 14.5726 6.8591C13.8192 7.61252 12.7976 8.03623 11.7321 8.03721ZM11.7321 1.95349C11.3235 1.95275 10.9239 2.07324 10.5838 2.29971C10.2437 2.52618 9.97841 2.84845 9.82154 3.22574C9.66466 3.60302 9.62323 4.01837 9.7025 4.4192C9.78176 4.82004 9.97815 5.18836 10.2668 5.47754C10.5555 5.76673 10.9234 5.96378 11.3241 6.04376C11.7248 6.12375 12.1402 6.08307 12.5178 5.92688C12.8954 5.77068 13.2181 5.506 13.4452 5.16631C13.6723 4.82662 13.7935 4.42721 13.7935 4.01861C13.7925 3.47185 13.5751 2.94771 13.1889 2.56074C12.8026 2.17378 12.2789 1.95546 11.7321 1.95349Z" fill="url(#paint2_radial_2196_168)"/>
<path d="M41.9051 19.1926C41.1094 19.1933 40.3314 18.958 39.6694 18.5165C39.0075 18.075 38.4914 17.447 38.1863 16.7121C37.8813 15.9772 37.8011 15.1683 37.9559 14.3878C38.1107 13.6073 38.4935 12.8903 39.0559 12.3273C39.6183 11.7644 40.335 11.381 41.1153 11.2255C41.8957 11.07 42.7046 11.1494 43.4398 11.4537C44.175 11.7581 44.8035 12.2736 45.2456 12.9352C45.6877 13.5967 45.9237 14.3745 45.9237 15.1702C45.9237 16.2364 45.5005 17.2589 44.7469 18.0131C43.9934 18.7674 42.9713 19.1916 41.9051 19.1926ZM41.9051 13.1088C41.4965 13.1088 41.0971 13.2301 40.7574 13.4571C40.4177 13.6842 40.1531 14.007 39.9969 14.3845C39.8407 14.7621 39.8 15.1775 39.88 15.5782C39.96 15.9789 40.157 16.3469 40.4462 16.6355C40.7354 16.9242 41.1037 17.1206 41.5045 17.1999C41.9054 17.2791 42.3207 17.2377 42.698 17.0808C43.0753 16.9239 43.3976 16.6587 43.624 16.3186C43.8505 15.9785 43.971 15.5788 43.9703 15.1702C43.9693 14.6232 43.7513 14.0989 43.3641 13.7124C42.9769 13.3259 42.4522 13.1088 41.9051 13.1088Z" fill="url(#paint3_radial_2196_168)"/>
<path d="M4.01861 25.853C3.2238 25.853 2.44685 25.6173 1.78599 25.1758C1.12513 24.7342 0.610058 24.1066 0.3059 23.3723C0.00174119 22.638 -0.0778406 21.83 0.0772182 21.0504C0.232277 20.2709 0.615013 19.5549 1.17702 18.9928C1.73904 18.4308 2.45508 18.0481 3.23462 17.893C4.01415 17.738 4.82216 17.8176 5.55646 18.1217C6.29076 18.4259 6.91839 18.941 7.35995 19.6018C7.80152 20.2627 8.03721 21.0396 8.03721 21.8344C8.03622 22.8999 7.61252 23.9215 6.8591 24.6749C6.10568 25.4283 5.08411 25.8521 4.01861 25.853ZM4.01861 19.7693C3.61017 19.7693 3.2109 19.8904 2.87129 20.1173C2.53168 20.3443 2.26699 20.6668 2.11069 21.0441C1.95438 21.4215 1.91349 21.8367 1.99317 22.2373C2.07285 22.6379 2.26954 23.0059 2.55835 23.2947C2.84716 23.5835 3.21513 23.7802 3.61572 23.8599C4.01632 23.9396 4.43154 23.8987 4.80889 23.7424C5.18624 23.586 5.50877 23.3214 5.73569 22.9817C5.96261 22.6421 6.08372 22.2429 6.08372 21.8344C6.08274 21.287 5.86485 20.7623 5.47778 20.3753C5.09071 19.9882 4.56601 19.7703 4.01861 19.7693Z" fill="url(#paint4_radial_2196_168)"/>
<path d="M19.3303 26.7907C19.1378 26.7893 18.9499 26.7312 18.7903 26.6236C18.6307 26.5159 18.5064 26.3636 18.4329 26.1857C18.3594 26.0077 18.3401 25.8121 18.3772 25.6232C18.4144 25.4343 18.5065 25.2606 18.6419 25.1238L24.1451 19.6168H34.0726C34.3321 19.6168 34.581 19.7199 34.7646 19.9034C34.9481 20.0869 35.0512 20.3359 35.0512 20.5954C35.0512 20.8549 34.9481 21.1038 34.7646 21.2874C34.581 21.4709 34.3321 21.574 34.0726 21.574H24.9526L20.0224 26.5117C19.931 26.6014 19.8228 26.6722 19.7041 26.7201C19.5853 26.7679 19.4583 26.792 19.3303 26.7907Z" fill="url(#paint5_radial_2196_168)"/>
<path d="M21.4623 10.7163H17.4511C17.3217 10.7157 17.1937 10.689 17.0748 10.6379C16.9559 10.5867 16.8485 10.5122 16.759 10.4186L13.1907 6.85025C13.0215 6.66435 12.9304 6.42051 12.9362 6.16925C12.9419 5.918 13.0441 5.67858 13.2216 5.50063C13.3991 5.32268 13.6382 5.21983 13.8895 5.21339C14.1407 5.20696 14.3848 5.29743 14.5711 5.46606L17.8567 8.75165H21.4623C21.5956 8.74341 21.7293 8.76257 21.8549 8.80793C21.9806 8.85329 22.0956 8.9239 22.1929 9.01541C22.2903 9.10691 22.3678 9.21738 22.4208 9.34C22.4739 9.46262 22.5012 9.5948 22.5012 9.72839C22.5012 9.86198 22.4739 9.99416 22.4208 10.1168C22.3678 10.2394 22.2903 10.3499 22.1929 10.4414C22.0956 10.5329 21.9806 10.6035 21.8549 10.6489C21.7293 10.6942 21.5956 10.7134 21.4623 10.7051V10.7163Z" fill="url(#paint6_radial_2196_168)"/>
<path d="M12.4577 22.813H7.05862C6.79908 22.813 6.55017 22.7099 6.36664 22.5264C6.18312 22.3429 6.08002 22.094 6.08002 21.8344C6.08002 21.5749 6.18312 21.326 6.36664 21.1424C6.55017 20.9589 6.79908 20.8558 7.05862 20.8558H12.0521L18.4261 14.4819C18.5165 14.3903 18.6243 14.3178 18.7431 14.2686C18.862 14.2194 18.9895 14.1945 19.1182 14.1953H24.9377C25.071 14.1871 25.2046 14.2063 25.3303 14.2516C25.4559 14.297 25.571 14.3676 25.6683 14.4591C25.7656 14.5506 25.8432 14.6611 25.8962 14.7837C25.9493 14.9063 25.9766 15.0385 25.9766 15.1721C25.9766 15.3057 25.9493 15.4379 25.8962 15.5605C25.8432 15.6831 25.7656 15.7936 25.6683 15.8851C25.571 15.9766 25.4559 16.0472 25.3303 16.0925C25.2046 16.1379 25.071 16.1571 24.9377 16.1488H19.5237L13.1461 22.5265C12.9634 22.7091 12.716 22.8121 12.4577 22.813Z" fill="url(#paint7_radial_2196_168)"/>
<path d="M11.9702 16.1488H6.88743C6.75409 16.1571 6.62048 16.1379 6.49482 16.0925C6.36917 16.0472 6.25414 15.9766 6.1568 15.8851C6.05947 15.7936 5.9819 15.6831 5.92888 15.5605C5.87586 15.4379 5.84851 15.3057 5.84851 15.1721C5.84851 15.0385 5.87586 14.9063 5.92888 14.7837C5.9819 14.6611 6.05947 14.5506 6.1568 14.4591C6.25414 14.3676 6.36917 14.297 6.49482 14.2516C6.62048 14.2063 6.75409 14.1871 6.88743 14.1953H11.9702C12.2189 14.2107 12.4523 14.3203 12.6229 14.5018C12.7935 14.6833 12.8885 14.923 12.8885 15.1721C12.8885 15.4212 12.7935 15.6609 12.6229 15.8424C12.4523 16.0239 12.2189 16.1335 11.9702 16.1488Z" fill="url(#paint8_radial_2196_168)"/>
<path d="M34.3293 10.7163H28.6102C28.4769 10.7245 28.3433 10.7054 28.2176 10.66C28.0919 10.6146 27.9769 10.544 27.8796 10.4525C27.7822 10.361 27.7047 10.2505 27.6517 10.1279C27.5986 10.0053 27.5713 9.87312 27.5713 9.73953C27.5713 9.60594 27.5986 9.47376 27.6517 9.35114C27.7047 9.22852 27.7822 9.11805 27.8796 9.02655C27.9769 8.93504 28.0919 8.86443 28.2176 8.81907C28.3433 8.77371 28.4769 8.75455 28.6102 8.76279H34.3293C34.4626 8.75455 34.5962 8.77371 34.7219 8.81907C34.8475 8.86443 34.9626 8.93504 35.0599 9.02655C35.1572 9.11805 35.2348 9.22852 35.2878 9.35114C35.3408 9.47376 35.3682 9.60594 35.3682 9.73953C35.3682 9.87312 35.3408 10.0053 35.2878 10.1279C35.2348 10.2505 35.1572 10.361 35.0599 10.4525C34.9626 10.544 34.8475 10.6146 34.7219 10.66C34.5962 10.7054 34.4626 10.7245 34.3293 10.7163Z" fill="url(#paint9_radial_2196_168)"/>
<path d="M38.8651 16.1489H32.0968C31.8481 16.1335 31.6147 16.0239 31.4441 15.8424C31.2735 15.6609 31.1785 15.4212 31.1785 15.1721C31.1785 14.923 31.2735 14.6833 31.4441 14.5018C31.6147 14.3203 31.8481 14.2107 32.0968 14.1954H38.8763C39.1249 14.2107 39.3583 14.3203 39.529 14.5018C39.6996 14.6833 39.7946 14.923 39.7946 15.1721C39.7946 15.4212 39.6996 15.6609 39.529 15.8424C39.3583 16.0239 39.1249 16.1335 38.8763 16.1489H38.8651Z" fill="url(#paint10_radial_2196_168)"/>
<defs>
<radialGradient id="paint0_radial_2196_168" cx="0" cy="0" r="1" gradientUnits="userSpaceOnUse" gradientTransform="translate(-0.480011 10.467) scale(46.0912 46.0912)">
<stop stop-color="#10ECFF"/>
<stop offset="0.5" stop-color="#777FFA"/>
<stop offset="1" stop-color="#CE20F3"/>
</radialGradient>
<radialGradient id="paint1_radial_2196_168" cx="0" cy="0" r="1" gradientUnits="userSpaceOnUse" gradientTransform="translate(-0.47998 10.467) scale(46.0912)">
<stop stop-color="#10ECFF"/>
<stop offset="0.5" stop-color="#777FFA"/>
<stop offset="1" stop-color="#CE20F3"/>
</radialGradient>
<radialGradient id="paint2_radial_2196_168" cx="0" cy="0" r="1" gradientUnits="userSpaceOnUse" gradientTransform="translate(-0.479983 10.467) scale(46.0912)">
<stop stop-color="#10ECFF"/>
<stop offset="0.5" stop-color="#777FFA"/>
<stop offset="1" stop-color="#CE20F3"/>
</radialGradient>
<radialGradient id="paint3_radial_2196_168" cx="0" cy="0" r="1" gradientUnits="userSpaceOnUse" gradientTransform="translate(-0.479986 10.467) scale(46.0912 46.0912)">
<stop stop-color="#10ECFF"/>
<stop offset="0.5" stop-color="#777FFA"/>
<stop offset="1" stop-color="#CE20F3"/>
</radialGradient>
<radialGradient id="paint4_radial_2196_168" cx="0" cy="0" r="1" gradientUnits="userSpaceOnUse" gradientTransform="translate(-0.479999 10.467) scale(46.0912 46.0912)">
<stop stop-color="#10ECFF"/>
<stop offset="0.5" stop-color="#777FFA"/>
<stop offset="1" stop-color="#CE20F3"/>
</radialGradient>
<radialGradient id="paint5_radial_2196_168" cx="0" cy="0" r="1" gradientUnits="userSpaceOnUse" gradientTransform="translate(-0.479968 10.467) scale(46.0912 46.0912)">
<stop stop-color="#10ECFF"/>
<stop offset="0.5" stop-color="#777FFA"/>
<stop offset="1" stop-color="#CE20F3"/>
</radialGradient>
<radialGradient id="paint6_radial_2196_168" cx="0" cy="0" r="1" gradientUnits="userSpaceOnUse" gradientTransform="translate(-0.480022 10.467) scale(46.0912 46.0912)">
<stop stop-color="#10ECFF"/>
<stop offset="0.5" stop-color="#777FFA"/>
<stop offset="1" stop-color="#CE20F3"/>
</radialGradient>
<radialGradient id="paint7_radial_2196_168" cx="0" cy="0" r="1" gradientUnits="userSpaceOnUse" gradientTransform="translate(-0.47998 10.467) scale(46.0912 46.0912)">
<stop stop-color="#10ECFF"/>
<stop offset="0.5" stop-color="#777FFA"/>
<stop offset="1" stop-color="#CE20F3"/>
</radialGradient>
<radialGradient id="paint8_radial_2196_168" cx="0" cy="0" r="1" gradientUnits="userSpaceOnUse" gradientTransform="translate(-0.480012 10.467) scale(46.0912 46.0912)">
<stop stop-color="#10ECFF"/>
<stop offset="0.5" stop-color="#777FFA"/>
<stop offset="1" stop-color="#CE20F3"/>
</radialGradient>
<radialGradient id="paint9_radial_2196_168" cx="0" cy="0" r="1" gradientUnits="userSpaceOnUse" gradientTransform="translate(-0.480024 10.467) scale(46.0912 46.0912)">
<stop stop-color="#10ECFF"/>
<stop offset="0.5" stop-color="#777FFA"/>
<stop offset="1" stop-color="#CE20F3"/>
</radialGradient>
<radialGradient id="paint10_radial_2196_168" cx="0" cy="0" r="1" gradientUnits="userSpaceOnUse" gradientTransform="translate(-0.479983 10.467) scale(46.0912 46.0912)">
<stop stop-color="#10ECFF"/>
<stop offset="0.5" stop-color="#777FFA"/>
<stop offset="1" stop-color="#CE20F3"/>
</radialGradient>
</defs>
</svg>
