<svg width="395" height="229" viewBox="0 0 395 229" fill="none" xmlns="http://www.w3.org/2000/svg">
<g clip-path="url(#clip0_2202_723)">
<path d="M197.5 133.104C192.82 133.108 188.155 132.588 183.591 131.554L185.593 122.734C189.502 123.602 193.495 124.041 197.5 124.043C210.338 124.04 222.753 119.461 232.51 111.132C242.267 102.804 248.725 91.2715 250.722 78.6121C252.718 65.9527 250.121 52.9977 243.399 42.0795C236.677 31.1613 226.272 22.9971 214.056 19.0567C201.839 15.1164 188.615 15.6587 176.764 20.5861C164.913 25.5135 155.213 34.5022 149.411 45.934C143.609 57.3658 142.086 70.4898 145.116 82.943C148.145 95.3963 155.529 106.361 165.938 113.863L160.623 121.201C148.463 112.433 139.838 99.6199 136.301 85.0685C132.764 70.517 134.547 55.1832 141.329 41.8274C148.112 28.4716 159.447 17.9713 173.296 12.2169C187.144 6.46243 202.595 5.8319 216.868 10.4388C231.141 15.0457 243.297 24.5873 251.149 37.346C259 50.1046 262.031 65.2421 259.696 80.0331C257.36 94.8242 249.812 108.297 238.41 118.027C227.007 127.756 212.5 133.103 197.5 133.104Z" fill="url(#paint0_radial_2202_723)"/>
<path d="M170.683 148.142C166.993 148.145 163.385 147.056 160.315 145.012C157.245 142.968 154.851 140.061 153.437 136.659C152.022 133.257 151.65 129.512 152.368 125.899C153.086 122.285 154.861 118.966 157.47 116.36C160.078 113.754 163.402 111.979 167.021 111.259C170.64 110.539 174.391 110.907 177.801 112.316C181.21 113.724 184.125 116.111 186.175 119.174C188.226 122.236 189.32 125.837 189.32 129.521C189.32 134.457 187.357 139.19 183.863 142.682C180.368 146.174 175.628 148.137 170.683 148.142ZM170.683 119.978C168.789 119.978 166.936 120.539 165.361 121.59C163.785 122.641 162.558 124.136 161.834 125.884C161.109 127.631 160.92 129.555 161.291 131.41C161.662 133.265 162.576 134.968 163.917 136.304C165.259 137.641 166.967 138.55 168.826 138.917C170.685 139.284 172.611 139.092 174.361 138.366C176.11 137.64 177.605 136.411 178.655 134.837C179.705 133.263 180.264 131.412 180.261 129.521C180.263 128.264 180.017 127.019 179.537 125.857C179.056 124.695 178.351 123.639 177.462 122.75C176.572 121.86 175.516 121.154 174.353 120.673C173.189 120.191 171.943 119.943 170.683 119.943V119.978Z" fill="url(#paint1_radial_2202_723)"/>
<path d="M145.42 37.2078C141.734 37.2078 138.131 36.1167 135.066 34.0724C132.001 32.0282 129.612 29.1227 128.202 25.7233C126.791 22.3239 126.422 18.5833 127.141 14.9745C127.86 11.3657 129.635 8.05076 132.242 5.44896C134.848 2.84716 138.169 1.07531 141.784 0.357477C145.399 -0.360358 149.147 0.00806082 152.552 1.41614C155.958 2.82423 158.868 5.20873 160.916 8.26813C162.964 11.3275 164.057 14.9244 164.057 18.6039C164.052 23.5365 162.087 28.2659 158.593 31.7538C155.099 35.2417 150.361 37.2032 145.42 37.2078ZM145.42 9.04356C143.525 9.04015 141.672 9.59796 140.094 10.6464C138.517 11.6948 137.287 13.1867 136.559 14.9334C135.832 16.68 135.64 18.6028 136.007 20.4584C136.375 22.3141 137.286 24.0192 138.625 25.3579C139.963 26.6967 141.67 27.609 143.528 27.9792C145.386 28.3495 147.313 28.1612 149.064 27.4381C150.815 26.715 152.312 25.4897 153.365 23.9171C154.418 22.3445 154.98 20.4955 154.98 18.6039C154.976 16.0727 153.967 13.6462 152.176 11.8548C150.385 10.0634 147.956 9.05266 145.42 9.04356Z" fill="url(#paint2_radial_2202_723)"/>
<path d="M285.353 88.8508C281.662 88.8542 278.054 87.765 274.984 85.7209C271.914 83.6769 269.521 80.7699 268.106 77.3676C266.692 73.9653 266.32 70.2207 267.037 66.6074C267.755 62.9942 269.531 59.6746 272.139 57.0686C274.747 54.4627 278.071 52.6875 281.69 51.9676C285.309 51.2477 289.06 51.6155 292.47 53.0244C295.88 54.4332 298.794 56.8199 300.845 59.8825C302.895 62.9451 303.99 66.546 303.99 70.2297C303.99 75.1653 302.027 79.899 298.532 83.3907C295.037 86.8823 290.297 88.8462 285.353 88.8508ZM285.353 60.6866C283.458 60.6866 281.605 61.2477 280.03 62.299C278.455 63.3502 277.227 64.8444 276.503 66.5923C275.778 68.3402 275.59 70.2634 275.961 72.1184C276.332 73.9733 277.245 75.6768 278.587 77.0132C279.928 78.3495 281.636 79.2587 283.495 79.6256C285.354 79.9925 287.28 79.8008 289.03 79.0745C290.779 78.3483 292.274 77.1202 293.324 75.5458C294.375 73.9713 294.933 72.1212 294.93 70.2297C294.925 67.6971 293.914 65.2698 292.119 63.4806C290.323 61.6914 287.89 60.6866 285.353 60.6866Z" fill="url(#paint3_radial_2202_723)"/>
<path d="M109.647 119.685C105.961 119.685 102.358 118.594 99.2933 116.55C96.2285 114.505 93.8397 111.6 92.4292 108.2C91.0186 104.801 90.6495 101.06 91.3686 97.4517C92.0877 93.8429 93.8627 90.528 96.4692 87.9262C99.0756 85.3244 102.396 83.5525 106.012 82.8347C109.627 82.1168 113.374 82.4853 116.78 83.8933C120.185 85.3014 123.096 87.6859 125.144 90.7453C127.191 93.8047 128.284 97.4016 128.284 101.081C128.28 106.014 126.315 110.743 122.821 114.231C119.327 117.719 114.589 119.68 109.647 119.685ZM109.647 91.5208C107.753 91.5208 105.902 92.0815 104.327 93.132C102.752 94.1825 101.524 95.6756 100.799 97.4225C100.074 99.1694 99.8846 101.092 100.254 102.946C100.624 104.801 101.536 106.504 102.875 107.841C104.215 109.178 105.921 110.089 107.779 110.458C109.637 110.827 111.563 110.637 113.313 109.914C115.063 109.19 116.558 107.965 117.611 106.393C118.663 104.82 119.225 102.972 119.225 101.081C119.22 98.5469 118.21 96.1179 116.415 94.3259C114.62 92.534 112.186 91.5253 109.647 91.5208Z" fill="url(#paint4_radial_2202_723)"/>
<path d="M180.658 124.026C179.765 124.019 178.894 123.75 178.154 123.252C177.413 122.754 176.837 122.049 176.496 121.225C176.155 120.401 176.065 119.495 176.238 118.621C176.41 117.746 176.837 116.942 177.465 116.309L202.988 90.8145H249.028C250.231 90.8145 251.386 91.2918 252.237 92.1414C253.088 92.991 253.566 94.1434 253.566 95.3449C253.566 96.5464 253.088 97.6988 252.237 98.5484C251.386 99.398 250.231 99.8753 249.028 99.8753H206.732L183.867 122.734C183.444 123.149 182.942 123.477 182.391 123.699C181.841 123.92 181.251 124.031 180.658 124.026Z" fill="url(#paint5_radial_2202_723)"/>
<path d="M190.546 49.6103H171.943C171.343 49.6076 170.749 49.4841 170.198 49.2474C169.646 49.0106 169.148 48.6654 168.733 48.2323L152.185 31.7127C151.4 30.8521 150.978 29.7233 151.004 28.5601C151.031 27.3969 151.505 26.2886 152.328 25.4648C153.151 24.6409 154.26 24.1648 155.425 24.135C156.59 24.1052 157.722 24.524 158.587 25.3047L173.824 40.5151H190.546C191.164 40.477 191.784 40.5657 192.366 40.7757C192.949 40.9857 193.483 41.3126 193.934 41.7362C194.385 42.1598 194.745 42.6712 194.991 43.2389C195.237 43.8065 195.364 44.4184 195.364 45.0369C195.364 45.6554 195.237 46.2673 194.991 46.8349C194.745 47.4026 194.385 47.914 193.934 48.3376C193.483 48.7612 192.949 49.0881 192.366 49.2981C191.784 49.5081 191.164 49.5968 190.546 49.5587V49.6103Z" fill="url(#paint6_radial_2202_723)"/>
<path d="M148.785 105.611H123.746C122.542 105.611 121.388 105.134 120.537 104.285C119.686 103.435 119.208 102.283 119.208 101.081C119.208 99.8796 119.686 98.7272 120.537 97.8776C121.388 97.028 122.542 96.5507 123.746 96.5507H146.904L176.464 67.0429C176.884 66.6191 177.384 66.2835 177.935 66.0557C178.486 65.8279 179.077 65.7125 179.674 65.7165H206.663C207.282 65.6784 207.901 65.7671 208.484 65.9771C209.067 66.1871 209.6 66.5139 210.052 66.9376C210.503 67.3612 210.863 67.8726 211.109 68.4402C211.354 69.0079 211.481 69.6198 211.481 70.2383C211.481 70.8567 211.354 71.4686 211.109 72.0363C210.863 72.604 210.503 73.1154 210.052 73.539C209.6 73.9626 209.067 74.2895 208.484 74.4995C207.901 74.7095 207.282 74.7982 206.663 74.7601H181.555L151.978 104.285C151.13 105.13 149.983 105.607 148.785 105.611Z" fill="url(#paint7_radial_2202_723)"/>
<path d="M146.525 74.7601H122.952C122.334 74.7982 121.714 74.7095 121.131 74.4995C120.549 74.2895 120.015 73.9626 119.564 73.539C119.112 73.1154 118.753 72.604 118.507 72.0363C118.261 71.4686 118.134 70.8567 118.134 70.2383C118.134 69.6198 118.261 69.0079 118.507 68.4402C118.753 67.8726 119.112 67.3612 119.564 66.9376C120.015 66.5139 120.549 66.1871 121.131 65.9771C121.714 65.7671 122.334 65.6784 122.952 65.7165H146.525C147.678 65.7876 148.76 66.2949 149.551 67.1351C150.343 67.9753 150.783 69.0851 150.783 70.2383C150.783 71.3915 150.343 72.5013 149.551 73.3415C148.76 74.1816 147.678 74.689 146.525 74.7601Z" fill="url(#paint8_radial_2202_723)"/>
<path d="M250.218 49.6103H223.695C223.077 49.6485 222.457 49.5598 221.874 49.3498C221.292 49.1398 220.758 48.8129 220.307 48.3893C219.855 47.9657 219.496 47.4543 219.25 46.8866C219.004 46.3189 218.877 45.707 218.877 45.0886C218.877 44.4701 219.004 43.8582 219.25 43.2905C219.496 42.7229 219.855 42.2115 220.307 41.7879C220.758 41.3642 221.292 41.0374 221.874 40.8274C222.457 40.6174 223.077 40.5287 223.695 40.5668H250.218C250.837 40.5287 251.456 40.6174 252.039 40.8274C252.622 41.0374 253.155 41.3642 253.607 41.7879C254.058 42.2115 254.418 42.7229 254.664 43.2905C254.91 43.8582 255.037 44.4701 255.037 45.0886C255.037 45.707 254.91 46.3189 254.664 46.8866C254.418 47.4543 254.058 47.9657 253.607 48.3893C253.155 48.8129 252.622 49.1398 252.039 49.3498C251.456 49.5598 250.837 49.6485 250.218 49.6103Z" fill="url(#paint9_radial_2202_723)"/>
<path d="M271.254 74.76H239.865C238.712 74.689 237.629 74.1816 236.838 73.3414C236.046 72.5013 235.606 71.3915 235.606 70.2383C235.606 69.0851 236.046 67.9753 236.838 67.1351C237.629 66.2949 238.712 65.7876 239.865 65.7165H271.306C272.459 65.7876 273.541 66.2949 274.333 67.1351C275.124 67.9753 275.565 69.0851 275.565 70.2383C275.565 71.3915 275.124 72.5013 274.333 73.3414C273.541 74.1816 272.459 74.689 271.306 74.76H271.254Z" fill="url(#paint10_radial_2202_723)"/>
<path d="M0 187.761V179.338H40.777V187.761H0ZM15.6171 228.259V180.354H25.1599V228.225L15.6171 228.259Z" fill="white"/>
<path d="M39.4655 228.225V194.652H48.5941V228.259L39.4655 228.225ZM48.5941 209.638L45.0393 207.278C45.2325 203.727 46.4956 200.317 48.6631 197.494C49.7345 196.282 51.0682 195.33 52.5632 194.709C54.0581 194.088 55.6751 193.815 57.2914 193.911C58.7915 193.891 60.281 194.166 61.6745 194.721C63.0462 195.299 64.2635 196.19 65.2293 197.322L59.5174 203.868C59.001 203.319 58.3709 202.89 57.671 202.61C56.8805 202.323 56.0442 202.183 55.2033 202.197C54.323 202.164 53.4451 202.31 52.6233 202.627C51.8015 202.944 51.053 203.425 50.4233 204.04C49.7638 204.807 49.2626 205.696 48.9487 206.657C48.6348 207.617 48.5143 208.631 48.5941 209.638Z" fill="white"/>
<path d="M82.8309 228.931C80.0777 228.982 77.3573 228.329 74.9274 227.036C72.6778 225.852 70.8064 224.062 69.5262 221.869C68.1872 219.52 67.5132 216.853 67.5762 214.151V194.652H76.7739V213.927C76.739 215.158 76.9746 216.381 77.4641 217.51C77.8975 218.474 78.6376 219.267 79.5694 219.767C80.5766 220.283 81.6996 220.532 82.8309 220.49C83.6559 220.539 84.4818 220.41 85.2528 220.113C86.0238 219.816 86.722 219.357 87.3003 218.768C88.4441 217.41 89.0189 215.664 88.9052 213.893V194.652H98.0166V214.134C98.0788 216.853 97.4178 219.539 96.1011 221.92C94.8476 224.122 92.9842 225.917 90.7343 227.088C88.2965 228.355 85.5786 228.988 82.8309 228.931Z" fill="white"/>
<path d="M121.382 228.931C118.098 228.993 114.853 228.21 111.96 226.657C109.275 225.217 107.023 223.089 105.437 220.49C103.812 217.804 102.938 214.733 102.905 211.595C102.872 208.457 103.681 205.368 105.249 202.648C106.816 199.928 109.085 197.677 111.819 196.129C114.553 194.58 117.652 193.791 120.795 193.842C123.819 193.78 126.802 194.542 129.423 196.047C131.885 197.467 133.908 199.535 135.273 202.024C136.728 204.66 137.466 207.629 137.413 210.637C137.412 211.253 137.378 211.868 137.309 212.48C137.22 213.194 137.088 213.902 136.913 214.599H108.612V207.709H132.667L128.975 210.568C128.941 208.843 128.572 207.14 127.887 205.556C127.315 204.275 126.372 203.195 125.178 202.455C123.847 201.709 122.338 201.34 120.812 201.387C119.149 201.345 117.507 201.762 116.067 202.593C114.72 203.412 113.645 204.611 112.978 206.038C112.223 207.654 111.851 209.423 111.891 211.206C111.841 213.047 112.238 214.873 113.047 216.529C113.773 217.988 114.929 219.19 116.36 219.974C117.889 220.819 119.617 221.241 121.365 221.197C122.931 221.257 124.495 221.018 125.972 220.49C127.364 219.905 128.604 219.01 129.596 217.872L134.963 223.229C133.354 225.126 131.312 226.609 129.009 227.553C126.582 228.508 123.99 228.976 121.382 228.931Z" fill="white"/>
<path d="M157.551 228.225V179.304H167.042V228.225H157.551ZM164.04 228.225V219.801H176.516C179.408 219.868 182.268 219.186 184.817 217.82C187.159 216.519 189.081 214.577 190.356 212.222C191.744 209.568 192.427 206.602 192.34 203.609C192.408 200.685 191.712 197.794 190.321 195.22C189.017 192.885 187.087 190.958 184.748 189.656C182.221 188.297 179.385 187.614 176.516 187.675H163.833V179.252H176.654C180.092 179.191 183.51 179.775 186.732 180.974C189.745 182.147 192.496 183.903 194.825 186.142C197.118 188.34 198.943 190.976 200.192 193.894C202.794 200.207 202.788 207.292 200.175 213.6C198.933 216.543 197.106 219.204 194.805 221.422C192.503 223.64 189.774 225.368 186.784 226.502C183.591 227.728 180.196 228.341 176.775 228.311L164.04 228.225Z" fill="white"/>
<path d="M224.765 228.931C221.481 228.993 218.236 228.21 215.343 226.657C212.647 225.226 210.388 223.096 208.803 220.49C207.248 217.745 206.432 214.644 206.432 211.49C206.432 208.336 207.248 205.235 208.803 202.489C210.39 199.839 212.644 197.65 215.342 196.139C218.039 194.628 221.086 193.848 224.179 193.877C227.202 193.814 230.185 194.577 232.807 196.081C235.267 197.509 237.294 199.575 238.674 202.059C240.118 204.697 240.849 207.666 240.796 210.672C240.796 211.288 240.761 211.903 240.693 212.515C240.693 213.135 240.486 213.841 240.313 214.634H211.995V207.743H236.051L232.358 210.603C232.333 208.876 231.963 207.172 231.271 205.59C230.699 204.309 229.755 203.229 228.562 202.489C227.231 201.744 225.721 201.374 224.196 201.421C222.538 201.38 220.902 201.797 219.467 202.627C218.111 203.441 217.03 204.641 216.361 206.072C215.606 207.689 215.234 209.457 215.274 211.24C215.225 213.081 215.621 214.908 216.43 216.563C217.156 218.022 218.313 219.225 219.744 220.008C221.279 220.855 223.012 221.277 224.765 221.231C226.36 221.25 227.942 220.957 229.424 220.37C230.817 219.785 232.057 218.889 233.048 217.752L238.415 223.109C236.806 225.005 234.765 226.488 232.462 227.432C230.021 228.437 227.405 228.947 224.765 228.931Z" fill="white"/>
<path d="M242.677 202.61V194.652H267.561V202.645L242.677 202.61ZM250.546 228.225V180.63H259.692V228.225H250.546Z" fill="white"/>
<path d="M287.993 228.931C284.709 228.993 281.464 228.21 278.571 226.657C274.485 224.313 271.498 220.446 270.265 215.905C269.032 211.364 269.655 206.521 271.996 202.438C273.532 199.832 275.728 197.675 278.364 196.185C281.095 194.61 284.201 193.801 287.354 193.842C290.378 193.78 293.361 194.542 295.983 196.047C298.446 197.47 300.475 199.536 301.85 202.024C303.294 204.663 304.025 207.631 303.972 210.637C303.972 211.253 303.937 211.868 303.869 212.48C303.869 213.101 303.662 213.807 303.489 214.599H275.171V207.709H299.227L295.534 210.568C295.505 208.844 295.142 207.142 294.464 205.556C293.885 204.274 292.936 203.194 291.738 202.455C290.407 201.709 288.897 201.34 287.372 201.387C285.714 201.345 284.078 201.763 282.643 202.593C281.296 203.417 280.217 204.614 279.537 206.038C278.798 207.691 278.415 209.481 278.415 211.292C278.415 213.102 278.798 214.893 279.537 216.546C280.263 218.005 281.419 219.207 282.85 219.991C284.385 220.837 286.119 221.26 287.872 221.214C289.472 221.232 291.06 220.94 292.549 220.353C293.936 219.759 295.174 218.864 296.172 217.734L301.539 223.092C299.921 224.985 297.874 226.467 295.568 227.415C293.167 228.412 290.593 228.927 287.993 228.931Z" fill="white"/>
<path d="M325.491 228.931C322.254 228.977 319.06 228.182 316.224 226.623C312.167 224.277 309.206 220.423 307.99 215.903C306.774 211.383 307.402 206.566 309.736 202.507C311.318 199.874 313.568 197.705 316.259 196.219C319.076 194.641 322.261 193.833 325.491 193.877C328.005 193.854 330.497 194.353 332.808 195.341C335.018 196.305 336.996 197.733 338.606 199.527L332.739 205.435C331.871 204.483 330.796 203.741 329.598 203.265C328.3 202.737 326.91 202.474 325.508 202.489C323.936 202.468 322.387 202.867 321.022 203.644C319.712 204.364 318.621 205.423 317.864 206.71C317.06 208.138 316.661 209.758 316.707 211.395C316.672 213.037 317.071 214.659 317.864 216.098C318.587 217.424 319.662 218.526 320.97 219.285C322.336 220.062 323.885 220.46 325.456 220.439C326.884 220.458 328.3 220.182 329.615 219.629C330.831 219.103 331.911 218.308 332.773 217.304L338.709 223.212C337.049 225.027 335.027 226.476 332.773 227.467C330.473 228.45 327.993 228.949 325.491 228.931Z" fill="white"/>
<path d="M340.418 202.61V194.652H365.302V202.645L340.418 202.61ZM348.287 228.225V180.63H357.415V228.225H348.287Z" fill="white"/>
<path d="M381.367 229C379.471 229.001 377.584 228.74 375.759 228.225C373.991 227.735 372.292 227.023 370.703 226.106C369.207 225.229 367.866 224.111 366.734 222.799L372.17 217.304C373.278 218.567 374.658 219.562 376.208 220.215C377.82 220.885 379.552 221.219 381.298 221.197C382.482 221.274 383.667 221.061 384.75 220.577C385.103 220.408 385.4 220.141 385.605 219.808C385.81 219.475 385.914 219.09 385.906 218.699C385.915 218.261 385.806 217.828 385.591 217.446C385.375 217.065 385.061 216.748 384.681 216.528C383.643 215.963 382.526 215.556 381.367 215.323C380.073 214.961 378.71 214.582 377.295 214.134C375.882 213.699 374.518 213.122 373.222 212.412C371.924 211.701 370.83 210.669 370.047 209.414C369.172 207.905 368.747 206.178 368.822 204.436C368.775 202.466 369.322 200.528 370.392 198.872C371.509 197.238 373.072 195.959 374.896 195.186C377.076 194.257 379.429 193.805 381.799 193.859C384.398 193.827 386.975 194.325 389.374 195.324C391.592 196.281 393.524 197.794 394.983 199.716L389.478 205.211C388.562 204.042 387.378 203.108 386.027 202.489C384.718 201.933 383.308 201.651 381.885 201.663C380.813 201.599 379.744 201.813 378.779 202.283C378.455 202.44 378.181 202.685 377.989 202.989C377.797 203.294 377.694 203.646 377.692 204.005C377.691 204.412 377.805 204.811 378.022 205.155C378.239 205.5 378.549 205.776 378.917 205.952C379.918 206.495 380.985 206.906 382.092 207.175C383.386 207.519 384.75 207.916 386.165 208.363C387.585 208.8 388.943 209.419 390.203 210.207C391.506 210.958 392.617 212.002 393.447 213.256C394.316 214.779 394.741 216.516 394.672 218.268C394.733 219.761 394.443 221.247 393.826 222.608C393.209 223.969 392.281 225.167 391.117 226.106C388.306 228.179 384.856 229.203 381.367 229Z" fill="white"/>
</g>
<defs>
<radialGradient id="paint0_radial_2202_723" cx="0" cy="0" r="1" gradientUnits="userSpaceOnUse" gradientTransform="translate(88.7844 48.4562) scale(213.756 213.376)">
<stop stop-color="#10ECFF"/>
<stop offset="0.5" stop-color="#777FFA"/>
<stop offset="1" stop-color="#CE20F3"/>
</radialGradient>
<radialGradient id="paint1_radial_2202_723" cx="0" cy="0" r="1" gradientUnits="userSpaceOnUse" gradientTransform="translate(88.7844 48.4562) scale(213.756 213.376)">
<stop stop-color="#10ECFF"/>
<stop offset="0.5" stop-color="#777FFA"/>
<stop offset="1" stop-color="#CE20F3"/>
</radialGradient>
<radialGradient id="paint2_radial_2202_723" cx="0" cy="0" r="1" gradientUnits="userSpaceOnUse" gradientTransform="translate(88.7844 48.4562) scale(213.756 213.376)">
<stop stop-color="#10ECFF"/>
<stop offset="0.5" stop-color="#777FFA"/>
<stop offset="1" stop-color="#CE20F3"/>
</radialGradient>
<radialGradient id="paint3_radial_2202_723" cx="0" cy="0" r="1" gradientUnits="userSpaceOnUse" gradientTransform="translate(88.7844 48.4562) scale(213.756 213.376)">
<stop stop-color="#10ECFF"/>
<stop offset="0.5" stop-color="#777FFA"/>
<stop offset="1" stop-color="#CE20F3"/>
</radialGradient>
<radialGradient id="paint4_radial_2202_723" cx="0" cy="0" r="1" gradientUnits="userSpaceOnUse" gradientTransform="translate(88.7844 48.4562) scale(213.756 213.376)">
<stop stop-color="#10ECFF"/>
<stop offset="0.5" stop-color="#777FFA"/>
<stop offset="1" stop-color="#CE20F3"/>
</radialGradient>
<radialGradient id="paint5_radial_2202_723" cx="0" cy="0" r="1" gradientUnits="userSpaceOnUse" gradientTransform="translate(88.7844 48.4562) scale(213.756 213.376)">
<stop stop-color="#10ECFF"/>
<stop offset="0.5" stop-color="#777FFA"/>
<stop offset="1" stop-color="#CE20F3"/>
</radialGradient>
<radialGradient id="paint6_radial_2202_723" cx="0" cy="0" r="1" gradientUnits="userSpaceOnUse" gradientTransform="translate(88.7844 48.4562) scale(213.756 213.376)">
<stop stop-color="#10ECFF"/>
<stop offset="0.5" stop-color="#777FFA"/>
<stop offset="1" stop-color="#CE20F3"/>
</radialGradient>
<radialGradient id="paint7_radial_2202_723" cx="0" cy="0" r="1" gradientUnits="userSpaceOnUse" gradientTransform="translate(88.7844 48.4562) scale(213.756 213.376)">
<stop stop-color="#10ECFF"/>
<stop offset="0.5" stop-color="#777FFA"/>
<stop offset="1" stop-color="#CE20F3"/>
</radialGradient>
<radialGradient id="paint8_radial_2202_723" cx="0" cy="0" r="1" gradientUnits="userSpaceOnUse" gradientTransform="translate(88.7844 48.4562) scale(213.756 213.376)">
<stop stop-color="#10ECFF"/>
<stop offset="0.5" stop-color="#777FFA"/>
<stop offset="1" stop-color="#CE20F3"/>
</radialGradient>
<radialGradient id="paint9_radial_2202_723" cx="0" cy="0" r="1" gradientUnits="userSpaceOnUse" gradientTransform="translate(88.7844 48.4562) scale(213.756 213.376)">
<stop stop-color="#10ECFF"/>
<stop offset="0.5" stop-color="#777FFA"/>
<stop offset="1" stop-color="#CE20F3"/>
</radialGradient>
<radialGradient id="paint10_radial_2202_723" cx="0" cy="0" r="1" gradientUnits="userSpaceOnUse" gradientTransform="translate(88.7844 48.4562) scale(213.756 213.376)">
<stop stop-color="#10ECFF"/>
<stop offset="0.5" stop-color="#777FFA"/>
<stop offset="1" stop-color="#CE20F3"/>
</radialGradient>
<clipPath id="clip0_2202_723">
<rect width="395" height="229" fill="white"/>
</clipPath>
</defs>
</svg>
